<?xml version="1.0" standalone="no"?>
<!DOCTYPE svg PUBLIC "-//W3C//DTD SVG 20010904//EN"
 "http://www.w3.org/TR/2001/REC-SVG-20010904/DTD/svg10.dtd">
<svg version="1.0" xmlns="http://www.w3.org/2000/svg"
 width="500.000000pt" height="500.000000pt" viewBox="0 0 500.000000 500.000000"
 preserveAspectRatio="xMidYMid meet">
<metadata>
Created by potrace 1.14, written by Peter Selinger 2001-2017
</metadata>
<g transform="translate(0.000000,500.000000) scale(0.100000,-0.100000)"
fill="#000000" stroke="none">
<path d="M1070 4609 c0 -6 5 -7 12 -3 7 4 8 3 4 -5 -4 -6 -12 -9 -17 -6 -5 4
-12 -1 -15 -9 -3 -9 -10 -13 -15 -10 -5 3 -9 -3 -10 -13 0 -10 -3 -13 -6 -5
-2 6 -12 12 -21 12 -12 0 -13 -3 -4 -12 7 -7 12 -16 12 -22 0 -5 -6 -1 -14 9
-8 11 -13 24 -12 30 2 5 1 7 -1 3 -3 -5 -13 -4 -22 2 -21 11 -31 4 -30 -19 0
-12 2 -11 8 3 7 18 8 18 29 -4 12 -13 19 -26 16 -29 -3 -3 -8 -1 -12 4 -4 6
-17 11 -30 11 -17 1 -21 -3 -17 -16 3 -10 2 -21 -3 -24 -5 -3 -8 11 -7 32 2
20 1 31 -2 24 -4 -10 -8 -10 -21 0 -13 11 -14 11 -6 -2 16 -27 12 -58 -8 -55
-10 2 -22 -4 -28 -13 -5 -9 -10 -12 -10 -6 0 5 5 15 10 20 8 8 7 14 -3 23 -12
9 -14 8 -14 -6 0 -36 -3 -42 -23 -38 -12 2 -18 0 -15 -6 4 -5 10 -7 15 -4 5 3
12 0 16 -6 4 -7 3 -9 -4 -5 -5 3 -12 1 -14 -4 -2 -6 -13 -2 -25 10 -25 23 -41
27 -24 6 10 -11 8 -16 -9 -21 -11 -3 -18 -11 -15 -16 4 -5 1 -9 -5 -9 -6 0 -8
-5 -4 -12 5 -8 11 -5 17 10 14 30 33 34 54 9 11 -13 12 -17 3 -11 -20 14 -42
12 -48 -5 -3 -9 0 -11 9 -5 12 7 12 5 0 -9 -11 -13 -17 -15 -28 -6 -11 9 -17
8 -28 -7 -8 -10 -15 -26 -15 -34 0 -13 -1 -13 -10 0 -5 8 -13 11 -17 6 -4 -4
1 -14 11 -22 16 -11 17 -14 4 -14 -17 0 -33 26 -29 48 1 6 -2 12 -6 12 -5 0
-10 -16 -11 -35 -4 -72 -5 -75 -21 -62 -11 10 -13 9 -9 -3 3 -8 -1 -27 -9 -42
-15 -31 -26 -38 -16 -11 7 17 6 17 -19 1 -23 -15 -27 -16 -30 -2 -2 12 -6 10
-15 -5 -11 -17 -10 -19 3 -14 22 8 13 -20 -9 -29 -10 -4 -15 -12 -12 -18 3 -5
0 -10 -7 -10 -10 0 -9 -3 2 -9 20 -13 34 -2 19 15 -12 15 -2 18 26 8 14 -6 13
-8 -5 -21 -32 -23 -24 -50 13 -44 5 1 6 -2 3 -7 -6 -10 -32 -9 -59 3 -9 4 -23
2 -31 -4 -7 -6 -15 -8 -19 -5 -3 3 -4 -1 -3 -10 1 -9 7 -21 14 -28 9 -9 11 -7
7 9 -3 21 17 38 29 26 11 -11 6 -23 -8 -23 -9 0 -13 -7 -11 -20 4 -18 2 -19
-19 -5 -20 13 -23 13 -23 0 0 -8 4 -12 9 -9 4 3 11 -2 14 -10 3 -9 9 -14 13
-11 4 2 8 -2 8 -10 0 -8 -3 -13 -5 -10 -3 3 -10 0 -17 -5 -8 -7 -12 -5 -12 5
0 8 5 11 11 8 6 -3 8 -2 3 2 -4 5 -17 10 -30 12 -21 4 -21 3 -2 -11 11 -9 16
-16 11 -16 -5 0 -4 -6 1 -12 15 -20 24 -50 13 -43 -6 3 -10 12 -10 20 0 13
-52 16 -65 3 -3 -3 9 -4 27 -3 29 3 31 2 14 -11 -11 -7 -23 -11 -28 -8 -5 3
-8 2 -7 -3 3 -19 -2 -34 -10 -29 -5 4 -8 -5 -6 -20 2 -19 -1 -24 -14 -20 -13
5 -13 4 1 -7 10 -8 14 -18 10 -23 -4 -4 1 -2 10 5 10 7 15 18 11 24 -3 5 -2 7
4 4 5 -3 10 0 10 8 0 11 -4 12 -14 4 -9 -8 -13 -8 -13 -1 0 6 6 15 14 19 8 4
14 12 13 17 -1 5 9 11 23 13 23 3 24 3 6 -10 -20 -15 -31 -47 -15 -47 5 0 9
-5 9 -12 0 -6 -3 -8 -7 -5 -3 4 -12 -1 -19 -11 -17 -21 -18 -40 -2 -24 16 16
25 15 32 -4 3 -8 2 -13 -3 -10 -5 3 -11 -1 -15 -9 -3 -8 -1 -17 4 -20 6 -4 10
-1 10 6 0 7 3 9 7 6 3 -4 -4 -18 -16 -31 -17 -18 -30 -22 -59 -20 -26 2 -31 1
-17 -5 19 -8 19 -8 0 -20 -19 -11 -19 -12 1 -6 15 4 24 0 28 -11 5 -14 9 -14
24 -3 13 11 12 8 -3 -11 -11 -14 -21 -27 -23 -30 -2 -3 -2 4 0 15 2 15 -3 20
-20 21 -12 1 -20 -1 -17 -4 2 -3 -1 -12 -7 -21 -7 -9 -2 -7 11 4 14 11 21 14
17 7 -4 -7 -2 -19 4 -27 9 -11 9 -15 1 -15 -6 0 -11 5 -11 11 0 9 -4 8 -14 0
-17 -14 -15 -63 3 -85 12 -14 12 -16 -1 -11 -21 8 -19 -32 2 -45 13 -8 12 -10
-3 -10 -10 0 -15 -5 -12 -10 4 -6 11 -7 17 -4 7 4 8 2 4 -5 -4 -6 -12 -8 -18
-5 -6 4 -8 1 -6 -7 3 -8 12 -13 19 -11 11 2 11 -1 -1 -10 -17 -14 -24 -122 -7
-111 5 3 4 -4 -2 -15 -14 -25 -15 -55 -2 -34 7 11 9 11 14 -2 4 -9 1 -15 -5
-13 -7 1 -13 -7 -15 -18 -3 -15 -2 -17 5 -6 6 8 12 9 16 3 3 -5 -1 -12 -9 -16
-8 -3 -15 -13 -15 -23 0 -14 2 -15 9 -4 5 8 11 9 15 3 3 -5 -1 -12 -9 -16 -8
-3 -15 -13 -15 -23 0 -14 2 -15 9 -4 5 8 11 9 15 3 3 -5 -2 -13 -12 -17 -16
-6 -16 -7 1 -20 15 -10 15 -14 3 -18 -17 -7 -14 -43 4 -39 6 1 9 -2 5 -8 -3
-6 -11 -7 -17 -4 -6 4 -5 -3 2 -16 7 -13 8 -20 2 -16 -15 9 -8 -39 9 -61 13
-16 12 -17 -3 -5 -15 12 -17 11 -15 -7 0 -11 4 -18 7 -16 3 2 6 -5 6 -15 0
-10 -4 -17 -7 -14 -13 8 -3 -44 12 -63 13 -16 12 -17 -3 -5 -15 12 -17 11 -15
-7 0 -11 4 -18 7 -16 3 2 6 -5 6 -15 0 -10 -4 -17 -7 -14 -10 6 -5 -38 6 -55
5 -9 4 -12 -2 -8 -12 8 -11 -92 2 -112 5 -9 4 -12 -2 -8 -12 8 -11 -92 2 -113
5 -8 4 -11 -2 -7 -6 4 -10 -9 -9 -34 1 -22 7 -44 15 -48 10 -6 8 -10 -6 -15
-17 -7 -17 -8 0 -21 17 -12 17 -13 0 -20 -17 -6 -17 -7 0 -20 17 -12 17 -13 0
-20 -17 -6 -17 -7 0 -20 17 -12 17 -13 0 -20 -17 -6 -17 -7 0 -20 17 -12 17
-13 0 -20 -17 -6 -17 -7 0 -20 17 -12 17 -13 0 -20 -17 -6 -17 -7 0 -20 13 -9
14 -14 4 -18 -15 -5 -17 -84 -3 -106 6 -8 5 -12 0 -8 -5 3 -10 -10 -10 -29 0
-27 3 -34 15 -29 12 4 11 1 -2 -9 -18 -14 -18 -15 0 -25 15 -9 15 -10 2 -11
-16 0 -20 -33 -4 -47 4 -5 5 -3 1 4 -3 6 -1 15 6 19 7 4 10 4 6 -1 -4 -4 -3
-14 4 -22 6 -8 7 -13 2 -12 -25 4 -29 -6 -29 -80 -1 -60 2 -78 12 -74 7 3 13
1 13 -5 0 -5 -7 -13 -16 -16 -12 -5 -14 -10 -5 -20 6 -7 8 -16 4 -20 -4 -4 -1
-11 7 -16 20 -13 30 -12 30 0 0 6 -5 9 -12 8 -7 -2 -12 2 -13 7 0 6 -4 16 -8
23 -16 24 9 10 31 -19 14 -17 19 -29 11 -29 -18 0 -2 -13 21 -17 11 -1 26 7
34 19 9 12 18 19 21 17 3 -3 -3 -14 -13 -25 -17 -17 -17 -21 -4 -44 l14 -25
-19 23 -19 23 -19 -22 -20 -22 25 13 24 13 -17 -26 c-20 -31 -23 -59 -4 -32
11 14 16 15 22 5 5 -9 4 -11 -3 -6 -7 4 -12 2 -12 -3 0 -6 6 -11 13 -11 7 0
18 -10 26 -23 13 -20 13 -21 -2 -8 -21 17 -21 12 -2 -27 12 -22 21 -29 33 -25
14 5 15 3 4 -8 -9 -10 -15 -10 -24 -1 -19 19 -29 14 -16 -7 6 -10 19 -17 27
-16 9 2 16 4 16 5 0 1 9 3 21 5 13 3 21 -1 21 -10 0 -10 -5 -11 -18 -5 -12 7
-21 5 -30 -6 -12 -14 -15 -14 -31 6 -10 12 -18 17 -18 11 0 -6 -5 -11 -11 -11
-8 0 -8 5 1 15 10 12 10 15 -1 15 -10 1 -9 4 3 11 22 12 12 39 -12 34 -10 -2
-21 3 -24 11 -3 8 0 14 7 14 7 0 4 7 -6 14 -23 18 -23 24 0 42 17 13 17 14 0
8 -15 -6 -17 -2 -12 27 4 27 3 31 -6 19 -9 -13 -10 -12 -5 3 3 11 2 16 -4 12
-6 -3 -10 -2 -10 3 0 5 -7 9 -16 9 -15 0 -15 -2 1 -13 10 -7 14 -18 9 -25 -4
-8 -3 -10 4 -5 8 5 12 0 12 -13 0 -13 -7 -21 -17 -22 -11 0 -13 -3 -5 -6 6 -2
10 -9 7 -14 -4 -5 2 -6 12 -2 15 5 16 3 5 -8 -17 -18 -15 -32 4 -25 10 4 13 2
7 -7 -13 -20 -12 -36 3 -48 11 -9 14 -8 14 1 0 19 13 3 17 -20 3 -22 -12 -27
-20 -7 -4 9 -6 9 -6 0 -1 -7 13 -19 29 -28 17 -9 30 -20 30 -26 0 -6 -16 -1
-35 11 -19 12 -35 17 -35 12 0 -5 10 -12 22 -15 20 -6 20 -7 4 -32 -15 -23
-15 -28 -1 -47 8 -13 15 -17 15 -11 0 7 -5 15 -10 18 -5 3 -10 11 -10 17 0 6
9 3 20 -7 15 -13 17 -22 10 -36 -6 -10 -10 -21 -10 -26 1 -4 8 6 17 22 10 19
18 25 21 17 2 -8 -1 -19 -7 -25 -16 -16 -14 -30 4 -23 10 4 20 -3 27 -19 6
-14 15 -25 19 -25 6 0 6 -17 -1 -40 -1 -3 -6 4 -11 15 -8 17 -9 16 -3 -5 3
-14 6 -31 6 -37 1 -9 5 -10 15 -2 18 15 16 4 -3 -29 l-16 -27 21 25 c22 24 22
24 16 3 -4 -14 -2 -23 5 -23 6 0 8 5 5 10 -3 5 -1 10 4 10 17 0 13 -18 -6 -30
-17 -11 -17 -11 -1 -6 20 6 35 -10 16 -17 -7 -2 2 -4 20 -5 17 0 32 4 32 9 0
6 -4 8 -8 5 -4 -2 -14 -1 -21 3 -9 6 -10 11 -2 15 6 4 11 3 11 -2 0 -5 7 -9
15 -9 9 0 14 5 12 11 -3 6 -10 10 -16 8 -7 -1 -10 7 -7 23 3 17 1 24 -7 19 -7
-3 -4 1 6 9 12 10 14 17 7 22 -5 3 -7 11 -4 17 5 7 2 8 -7 3 -8 -5 -11 -5 -7
0 10 10 -11 37 -23 29 -5 -3 -9 0 -9 5 0 6 5 11 11 11 7 0 0 9 -14 20 -30 24
-41 25 -34 5 4 -8 2 -17 -3 -20 -10 -6 -11 -5 -15 33 -2 16 2 21 11 18 7 -3
16 0 20 6 5 7 2 8 -6 3 -9 -5 -11 -4 -6 4 9 14 -15 11 -27 -4 -5 -6 -7 -3 -3
7 3 10 1 17 -6 15 -6 -1 -12 10 -13 25 -2 24 0 26 19 17 19 -9 20 -9 3 4 -20
17 -22 23 -4 25 6 0 21 2 32 4 14 2 19 -3 19 -17 0 -11 5 -23 10 -27 6 -4 7
-10 3 -15 -5 -4 -12 -1 -16 6 -5 8 -11 9 -15 3 -6 -10 22 -27 39 -23 5 1 2 -6
-8 -17 -22 -24 -22 -39 0 -21 9 8 14 9 10 3 -4 -7 0 -15 9 -18 8 -3 12 -10 9
-16 -3 -5 -2 -10 4 -10 5 0 15 8 20 18 6 9 11 12 11 5 0 -6 -5 -15 -10 -18 -6
-4 -7 -11 -4 -17 4 -6 10 -5 15 3 7 11 9 11 9 1 0 -7 -7 -15 -15 -18 -8 -4
-12 -10 -9 -16 3 -5 13 -4 22 4 10 7 14 8 10 4 -4 -5 0 -15 10 -23 16 -12 15
-13 -3 -6 -11 3 -17 3 -13 -2 4 -4 3 -14 -4 -22 -8 -10 -6 -19 12 -38 13 -13
27 -22 32 -19 4 3 -2 14 -14 24 -19 15 -21 21 -10 32 11 11 12 10 7 -4 -7 -18
26 -43 41 -30 5 4 2 -1 -5 -10 -15 -21 -2 -24 18 -5 11 9 10 7 0 -11 -15 -24
-29 -29 -29 -10 0 6 -2 9 -5 6 -10 -10 7 -38 19 -31 6 3 6 1 -2 -8 -20 -22
-14 -34 8 -14 11 10 20 15 20 10 0 -4 -10 -16 -22 -26 -11 -11 -19 -19 -17
-20 2 0 15 -2 28 -5 14 -2 30 -9 38 -15 16 -14 47 7 36 24 -3 6 -1 7 5 3 9 -5
8 -12 -1 -26 -13 -23 -28 -25 -44 -9 -14 14 -47 3 -37 -12 5 -8 8 -8 13 0 5 7
14 4 29 -9 12 -11 23 -16 27 -10 3 6 11 10 18 10 6 0 2 -6 -8 -14 -11 -8 -23
-12 -27 -10 -5 3 -7 -5 -5 -18 1 -17 -3 -22 -15 -20 -9 1 -19 -1 -22 -6 -2 -4
7 -8 22 -9 46 -1 52 -3 52 -14 0 -7 -4 -8 -12 -2 -16 12 -56 9 -70 -5 -6 -6
-6 -12 3 -17 7 -5 10 -4 6 2 -8 13 15 24 30 15 6 -4 9 -14 8 -22 -3 -18 37
-22 52 -6 5 5 2 6 -6 1 -10 -6 -12 -4 -7 4 6 9 11 9 21 1 10 -8 15 -8 20 0 4
6 12 9 18 7 7 -2 20 0 30 5 9 5 17 5 17 1 0 -4 -16 -16 -34 -25 -26 -12 -37
-14 -46 -5 -10 9 -11 9 -6 0 5 -8 1 -13 -11 -14 -16 0 -16 -1 2 -8 11 -5 23
-7 26 -5 10 6 16 -17 14 -48 -1 -15 2 -25 7 -22 4 3 5 10 2 16 -5 8 -1 9 12 5
18 -7 18 -6 1 7 -23 18 -8 29 16 11 16 -12 16 -14 2 -29 -9 -9 -11 -16 -5 -16
6 0 13 7 16 15 4 8 10 12 16 9 5 -3 4 -12 -3 -20 -6 -8 -9 -17 -5 -21 3 -3 6
0 6 8 0 11 2 12 9 1 7 -11 9 -10 14 3 5 11 3 14 -6 9 -7 -5 -5 0 3 11 12 15
12 17 1 10 -10 -6 -12 -4 -6 5 5 7 4 11 -1 7 -5 -3 -27 8 -49 25 -22 17 -32
28 -23 25 9 -3 19 0 22 9 3 8 11 14 18 14 9 0 10 -3 2 -8 -6 -4 -11 -14 -11
-23 0 -20 33 -43 42 -29 3 6 1 10 -5 10 -6 0 -8 4 -5 10 11 17 24 11 20 -10
-2 -11 1 -20 7 -20 5 0 8 -6 5 -14 -3 -7 0 -19 6 -26 9 -10 9 -11 0 -6 -7 4
-13 2 -13 -3 0 -19 28 -12 35 9 3 11 11 20 16 20 5 0 2 -11 -7 -25 -9 -14 -12
-25 -6 -25 6 0 16 9 22 21 7 11 14 18 17 15 3 -3 0 -12 -7 -21 -7 -9 -9 -19
-5 -23 4 -4 10 -1 12 6 4 10 8 10 20 0 12 -10 14 -9 11 8 -2 14 2 18 19 17 17
-2 21 1 17 15 -5 14 -4 14 4 2 15 -20 4 -32 -20 -24 -14 4 -18 3 -13 -5 4 -7
2 -18 -4 -25 -9 -10 -5 -18 15 -31 25 -16 27 -16 21 0 -4 9 -7 19 -7 21 0 3
-5 2 -12 -2 -6 -4 -8 -3 -4 4 7 11 44 8 55 -4 3 -4 -2 -4 -11 -1 -21 7 -22 3
-8 -24 6 -11 7 -19 3 -18 -27 5 -21 -5 20 -32 45 -29 59 -49 36 -49 -5 0 -8 4
-5 8 2 4 -4 13 -15 20 -10 7 -19 8 -19 3 0 -6 5 -13 10 -16 6 -4 8 -11 4 -16
-4 -6 -11 -6 -20 2 -10 8 -11 16 -3 31 9 16 8 19 -3 16 -7 -3 -14 -10 -14 -16
-1 -7 -3 -13 -4 -14 -1 -2 -4 -16 -6 -33 -3 -30 -3 -30 10 -6 9 15 16 20 20
12 7 -10 52 -8 63 3 2 2 16 -7 31 -21 27 -25 39 -68 21 -78 -5 -4 -7 -11 -4
-16 4 -5 -2 -9 -11 -9 -10 0 -15 -3 -11 -6 3 -4 14 -3 24 1 10 5 21 9 26 9 4
1 6 6 5 11 -2 6 -7 9 -13 7 -5 -2 -5 2 2 9 6 6 9 19 6 28 -4 9 3 5 15 -9 18
-22 19 -28 8 -45 -8 -11 -18 -20 -24 -20 -6 0 -13 -3 -17 -7 -4 -3 0 -5 9 -4
8 1 19 5 22 9 4 4 23 7 41 7 19 0 32 4 28 9 -3 6 -14 8 -25 6 -13 -3 -17 1
-13 11 3 8 0 20 -5 27 -8 9 -8 17 0 27 8 13 9 12 5 -2 -7 -22 3 -30 20 -16 10
8 17 8 24 1 8 -8 7 -13 -2 -18 -8 -5 -10 -4 -5 3 4 7 3 12 -2 12 -6 0 -13 -7
-16 -16 -9 -22 -8 -24 8 -18 7 3 16 -2 20 -11 7 -20 26 -10 26 13 0 15 -2 15
-10 2 -5 -8 -10 -10 -10 -5 0 6 4 16 9 24 7 11 10 9 16 -8 3 -11 4 -25 1 -30
-3 -5 1 -14 8 -20 9 -8 17 -8 20 -2 3 5 1 11 -6 13 -8 3 -7 6 3 10 10 4 15 -1
16 -13 1 -10 -2 -19 -8 -19 -5 0 -9 -4 -9 -10 0 -5 3 -9 8 -9 28 5 52 -24 31
-36 -5 -4 -8 -1 -7 7 2 7 -3 12 -10 10 -8 -1 -11 2 -6 10 4 7 4 10 -1 6 -10
-10 -65 19 -65 35 0 8 -3 8 -8 2 -4 -6 -20 -11 -35 -12 -16 0 -31 -4 -34 -7
-9 -9 -12 -56 -3 -51 5 3 7 12 4 20 -3 7 3 18 15 24 26 14 34 14 24 -1 -15
-26 -11 -35 16 -30 l26 6 -25 7 c-28 8 -26 10 8 14 22 2 24 -1 25 -41 0 -11 6
-21 13 -21 8 0 10 5 5 11 -11 14 -10 47 1 40 5 -3 6 -9 3 -14 -3 -4 3 -14 13
-21 15 -13 16 -12 3 4 -8 10 -9 17 -3 17 14 0 43 -41 36 -52 -3 -4 2 -5 9 -2
8 3 17 14 20 25 3 10 1 17 -4 13 -5 -3 -6 1 -3 9 3 8 -2 22 -11 31 -9 9 -11
16 -5 16 6 0 13 -7 16 -15 4 -8 10 -12 15 -9 5 3 9 2 8 -3 -5 -27 1 -35 16
-23 9 7 18 10 22 6 3 -3 0 -6 -8 -6 -11 0 -11 -2 -1 -8 7 -5 10 -16 6 -25 -3
-9 -10 -14 -15 -11 -5 2 -21 -2 -36 -11 -21 -11 -23 -15 -8 -13 11 2 23 8 28
13 4 6 13 3 22 -9 8 -11 16 -14 16 -8 2 12 5 26 9 40 1 4 2 10 1 14 0 4 6 5
15 1 12 -4 12 -8 4 -13 -9 -5 -6 -10 9 -15 11 -3 21 -11 21 -16 0 -6 4 -7 10
-4 16 10 11 -1 -7 -16 -10 -8 -14 -9 -10 -2 4 6 2 15 -4 18 -7 5 -10 0 -7 -11
2 -11 11 -18 21 -16 10 2 15 -3 13 -10 -1 -7 -1 -10 1 -5 3 4 10 4 16 0 7 -4
7 -1 -1 9 -10 13 -10 18 -1 24 8 5 9 3 4 -6 -6 -9 -4 -12 7 -8 8 4 21 2 28 -2
8 -5 22 -4 32 1 14 8 16 6 11 -8 -6 -16 -5 -17 12 -3 18 15 18 14 1 -12 -20
-31 -32 -37 -22 -12 4 10 2 13 -6 8 -7 -4 -8 -3 -4 4 4 7 -1 10 -14 7 -11 -2
-20 1 -20 7 0 6 -3 9 -6 5 -3 -3 -1 -14 5 -24 8 -14 10 -14 11 -3 0 13 2 13 9
0 6 -8 7 -18 4 -24 -3 -5 -1 -6 5 -2 7 4 12 2 12 -4 0 -6 10 0 23 14 19 20 25
22 40 11 9 -7 17 -16 17 -20 0 -4 -7 -2 -15 5 -12 10 -18 10 -30 0 -8 -7 -15
-18 -14 -24 0 -6 3 -6 6 2 4 10 8 10 21 0 15 -12 16 -11 3 4 -9 12 -10 18 -2
18 6 0 14 -7 17 -15 6 -14 8 -13 19 1 8 12 14 13 19 6 4 -6 14 -8 24 -5 15 6
16 5 2 -13 -8 -10 -10 -16 -6 -12 5 4 16 2 25 -5 14 -10 14 -10 4 3 -6 8 -12
20 -13 25 -1 6 -8 9 -17 8 -11 -1 -12 2 -3 10 9 9 16 6 31 -12 10 -13 19 -18
19 -12 0 6 5 11 11 11 5 0 7 -5 3 -12 -4 -7 -3 -8 4 -4 7 4 12 3 12 -3 0 -6 7
-8 15 -5 8 4 15 10 15 16 0 5 -4 7 -9 4 -5 -3 -15 2 -22 12 -12 15 -12 16 2 5
12 -10 18 -10 29 0 9 8 11 9 6 0 -3 -6 -2 -14 3 -18 6 -3 7 -13 4 -23 -6 -16
-6 -16 11 1 9 9 21 17 26 17 5 0 17 3 27 7 16 6 16 5 4 -10 -7 -9 -18 -14 -24
-10 -6 3 -7 1 -3 -6 5 -7 12 -9 19 -3 7 5 25 12 40 16 15 4 25 11 22 16 -3 5
0 12 6 16 7 4 9 3 6 -3 -4 -6 0 -13 8 -17 8 -3 17 -1 20 4 4 6 11 10 17 10 5
0 0 -8 -13 -18 -17 -15 -19 -21 -9 -27 9 -6 11 -4 5 5 -6 10 -4 12 9 7 9 -4
15 -3 12 2 -3 5 1 12 10 15 10 4 13 2 8 -6 -5 -8 -2 -9 12 -4 10 4 24 9 29 10
6 1 16 5 23 10 12 7 12 4 2 -14 -6 -12 -9 -24 -6 -28 3 -3 6 0 6 7 0 7 5 9 10
6 6 -4 7 -11 4 -17 -4 -7 -2 -8 5 -4 6 4 9 11 6 16 -3 4 9 13 25 19 23 7 29 7
24 -1 -6 -10 17 -9 71 2 24 5 56 -1 50 -9 -3 -5 0 -13 6 -17 7 -4 9 -3 6 3 -4
6 1 17 10 24 10 8 14 9 10 2 -4 -6 -2 -15 4 -19 8 -4 9 -3 5 4 -4 7 -2 12 5
12 8 0 7 5 -2 17 -13 16 -12 17 3 5 10 -8 16 -17 15 -20 -1 -4 3 -8 8 -9 6 -2
10 2 10 7 0 14 12 17 22 6 5 -6 2 -6 -7 -1 -12 7 -13 6 -3 -7 7 -8 9 -19 5
-23 -4 -5 -1 -5 6 -1 7 4 9 12 6 18 -5 7 -1 9 9 5 10 -4 20 0 26 11 7 11 11
12 11 4 0 -7 5 -10 12 -6 7 4 8 3 4 -4 -5 -8 0 -12 13 -12 12 0 21 3 21 8 0 4
12 8 26 9 19 1 23 -2 15 -10 -6 -6 -11 -16 -11 -22 0 -5 5 -3 10 5 9 13 11 13
20 0 8 -11 9 -8 5 15 -3 17 -2 24 1 17 3 -6 11 -9 16 -6 7 4 8 2 4 -4 -4 -7
-2 -12 3 -12 6 0 11 6 11 13 0 6 5 4 11 -6 9 -16 13 -17 27 -4 24 20 43 30 40
20 -2 -4 2 -9 7 -10 6 -1 9 6 7 15 -2 14 -1 15 7 2 5 -8 8 -17 5 -21 -2 -4 0
-11 6 -14 6 -4 10 -3 9 2 -4 21 2 25 14 8 11 -14 16 -15 22 -5 5 9 4 11 -3 6
-7 -4 -12 -3 -12 3 0 5 9 9 20 8 23 -1 25 -8 8 -26 -11 -11 -9 -11 9 0 11 7
20 17 19 23 -2 6 -1 8 1 3 3 -4 9 -5 14 -1 13 8 11 -10 -4 -25 -10 -11 -8 -11
10 0 12 7 19 17 16 23 -4 5 -1 6 7 1 17 -11 60 -13 54 -3 -2 3 1 10 7 14 8 4
9 3 5 -4 -5 -8 1 -12 14 -12 13 0 19 -4 14 -12 -4 -7 -3 -8 5 -4 9 6 9 12 -1
24 -12 16 -11 16 6 2 11 -8 20 -13 22 -10 1 3 6 1 11 -4 4 -5 3 -7 -3 -3 -6 3
-11 0 -11 -8 0 -13 4 -12 19 2 10 9 18 13 18 8 0 -4 6 -2 14 4 11 9 16 9 22 0
5 -8 3 -9 -6 -4 -9 5 -11 4 -6 -4 4 -6 12 -9 17 -5 5 3 7 10 4 15 -4 5 -1 9 5
9 6 0 13 -7 16 -15 6 -14 8 -13 21 2 13 16 14 16 9 1 -3 -12 -1 -15 9 -12 8 3
13 11 11 17 -1 7 -1 9 1 4 3 -4 10 -4 15 -1 7 4 8 2 4 -4 -10 -16 16 -15 33 0
11 11 13 10 8 -4 -4 -12 -2 -15 8 -12 8 3 13 11 11 17 -1 7 -1 9 1 4 3 -4 10
-4 16 0 6 4 8 0 4 -11 -5 -14 -3 -15 13 -6 25 13 33 13 24 -2 -4 -7 -3 -8 5
-4 6 4 9 11 7 15 -3 4 1 8 9 8 8 0 12 -4 9 -8 -2 -4 0 -10 5 -13 5 -4 13 -2
16 4 5 8 11 7 21 -1 12 -10 14 -10 12 0 -2 7 8 19 22 28 20 12 21 12 8 0 -21
-17 -23 -28 -5 -24 6 1 11 -3 10 -9 -2 -9 4 -9 22 0 14 6 25 15 25 19 0 4 -9
3 -20 -3 -14 -7 -20 -7 -20 0 0 5 7 10 15 10 8 0 15 5 15 12 0 6 6 3 14 -7 8
-11 11 -26 8 -35 -5 -12 -3 -12 11 2 19 18 23 33 7 23 -6 -3 -7 1 -4 10 6 14
8 14 19 -1 7 -11 17 -14 25 -9 9 5 11 4 6 -3 -9 -15 -1 -15 26 -1 13 7 18 7
14 1 -3 -6 -1 -14 5 -18 8 -4 9 -3 5 4 -11 18 15 14 36 -5 11 -10 19 -13 18
-8 -5 22 1 27 16 15 8 -8 14 -9 12 -4 -2 5 2 9 7 9 6 0 9 -4 7 -9 -2 -5 5 -3
14 5 21 17 18 17 37 1 10 -9 17 -10 22 -2 3 6 11 7 17 4 7 -4 8 -2 4 4 -4 7
-2 12 3 12 6 0 11 -5 11 -12 0 -6 3 -8 8 -4 4 4 7 12 7 17 0 5 3 9 8 9 4 0 9
0 12 0 3 0 0 -10 -6 -23 -11 -19 -10 -20 3 -10 8 7 24 11 35 9 17 -4 20 0 16
17 -5 22 -5 22 11 2 13 -17 17 -18 25 -6 5 8 7 21 4 30 -2 9 3 4 12 -11 16
-29 30 -35 40 -18 4 6 12 7 18 3 8 -5 8 -2 0 9 -7 8 -9 19 -5 24 4 4 0 3 -8
-3 -13 -10 -16 -8 -17 10 -2 17 0 19 7 7 5 -8 10 -10 10 -5 0 6 9 -1 20 -15
11 -14 18 -18 15 -10 -4 11 1 16 15 17 12 1 18 -2 14 -9 -4 -7 -2 -8 5 -4 9 6
9 11 0 22 -10 12 -14 12 -20 2 -7 -10 -9 -10 -9 2 0 13 -1 13 -10 0 -8 -13
-10 -12 -10 4 0 12 5 16 15 13 8 -4 17 -2 21 4 3 5 14 7 25 4 12 -4 19 -2 17
5 -2 7 4 15 12 17 13 4 13 3 0 -6 -13 -10 -13 -11 0 -11 12 0 12 -2 2 -9 -10
-6 -10 -10 1 -19 11 -10 13 -5 11 29 -2 35 0 39 16 34 22 -7 22 22 -1 36 -11
7 -11 9 -1 9 7 0 11 4 8 8 -3 5 1 9 9 9 8 0 15 -4 15 -9 0 -4 -5 -8 -11 -8 -5
0 -7 -5 -4 -10 4 -6 10 -8 14 -6 4 3 13 0 21 -6 12 -8 12 -9 -2 -4 -10 3 -20
2 -22 -3 -3 -4 12 -7 32 -7 25 1 37 6 38 16 1 8 2 21 3 28 0 7 5 11 11 7 5 -3
7 -13 4 -23 -5 -13 -4 -14 4 -3 5 7 16 18 23 23 11 8 11 9 -1 5 -8 -2 -24 3
-34 12 -11 9 -16 10 -12 3 13 -22 -9 -13 -23 11 -13 21 -13 21 4 7 17 -14 18
-13 12 3 -3 9 -2 17 3 17 6 0 10 -7 10 -15 0 -12 13 -20 23 -13 1 1 12 -4 24
-10 18 -10 20 -9 16 7 -3 10 1 22 8 27 8 5 11 3 7 -7 -4 -11 2 -15 21 -16 16
-1 20 1 11 5 -20 9 -24 49 -5 49 8 0 16 -6 19 -14 3 -7 0 -13 -6 -13 -6 0 -9
-3 -5 -6 3 -3 11 -3 17 1 8 5 6 14 -6 32 -13 21 -14 25 -2 20 18 -6 31 2 45
27 9 16 11 17 16 2 4 -10 3 -15 -3 -11 -6 3 -10 1 -10 -4 0 -15 13 -14 29 2
11 9 14 9 18 0 3 -7 9 -13 15 -13 7 0 7 5 -1 13 -8 11 -6 18 9 32 16 15 23 16
37 5 10 -7 6 -1 -9 13 -15 14 -25 27 -22 30 2 2 -2 10 -11 17 -18 15 -19 7 -4
-22 9 -16 8 -19 -2 -13 -8 6 -10 4 -4 -6 7 -12 6 -12 -7 -1 -14 11 -20 10 -37
-7 -12 -12 -21 -26 -21 -32 0 -5 -5 -7 -11 -3 -8 5 -8 9 1 14 9 5 9 9 1 14 -6
4 -11 2 -11 -3 0 -20 -3 -26 -19 -38 -9 -6 -20 -9 -25 -6 -5 4 -6 0 -1 -7 5
-8 4 -11 -3 -6 -6 4 -9 -3 -8 -18 2 -19 -1 -24 -16 -21 -10 2 -16 0 -13 -5 3
-5 -3 -7 -14 -5 -15 3 -19 -1 -15 -13 5 -14 4 -14 -6 1 -10 15 -7 21 15 39 14
11 24 23 21 26 -3 3 -14 -2 -23 -11 -10 -8 -31 -21 -48 -27 -36 -14 -28 -4 16
18 18 10 34 25 35 35 1 11 6 22 10 25 4 4 4 -1 1 -11 -5 -13 -3 -17 5 -14 7 2
12 13 10 23 -2 13 0 15 6 7 6 -10 12 -8 24 6 9 11 13 23 10 27 -4 5 1 2 11 -5
14 -11 20 -11 34 0 14 12 16 12 9 0 -6 -9 -5 -12 5 -9 8 3 13 12 11 22 -2 9 2
16 8 16 6 0 9 -4 5 -9 -3 -6 4 -9 15 -8 25 2 25 6 3 24 -10 8 -13 12 -6 8 7
-3 19 7 28 22 15 27 15 27 9 3 -6 -24 -5 -24 12 -8 14 14 15 20 4 33 -11 13
-8 13 17 -2 22 -12 30 -23 27 -37 -6 -34 -21 -38 -16 -5 3 19 1 29 -5 26 -13
-8 -10 -51 5 -70 7 -8 24 -15 38 -15 17 0 22 3 13 8 -6 5 -18 6 -25 3 -17 -6
-10 37 7 48 6 4 9 11 5 17 -3 6 -2 13 3 16 17 11 21 -27 5 -45 -10 -11 -14
-19 -11 -19 9 0 47 42 47 52 0 5 -4 6 -10 3 -11 -7 -14 8 -4 18 13 13 43 -13
39 -33 -2 -11 0 -18 5 -15 10 6 8 24 -4 44 -7 11 -5 13 8 8 10 -4 15 -3 11 4
-4 5 -16 7 -28 3 -21 -6 -21 -6 -4 13 9 11 14 23 10 27 -5 4 1 6 12 4 16 -2
19 2 17 21 -2 21 0 22 15 10 11 -9 14 -10 9 -1 -4 7 -2 12 4 12 7 0 10 7 7 15
-4 8 -2 17 3 20 6 4 10 -2 10 -12 0 -15 2 -16 10 -3 6 9 5 17 -2 21 -7 4 -7 9
1 13 6 4 11 5 11 1 0 -3 8 -1 18 4 11 6 23 7 28 3 5 -4 2 0 -8 9 -9 9 -14 20
-10 24 4 5 1 5 -6 1 -10 -6 -11 -1 -6 21 6 25 5 26 -7 11 -11 -13 -18 -15 -29
-7 -13 9 -13 10 2 6 9 -4 19 1 22 10 5 11 2 14 -11 9 -14 -6 -15 -5 -6 5 10
10 15 9 28 -1 19 -16 19 -6 -1 28 -15 25 -15 26 1 7 9 -11 22 -19 30 -17 7 1
22 -9 34 -23 17 -23 20 -24 18 -6 0 11 -4 18 -7 16 -8 -5 -30 22 -23 29 3 3
12 1 20 -6 10 -8 17 -8 24 -1 8 8 7 13 -2 18 -8 5 -10 4 -5 -3 4 -7 3 -12 -3
-12 -20 0 -20 18 -1 35 18 17 25 14 21 -8 -1 -5 3 -6 9 -2 11 7 -9 45 -23 45
-4 0 -6 4 -2 9 3 5 0 13 -6 17 -7 4 -9 3 -6 -2 3 -6 -4 -11 -16 -11 -15 -2
-18 0 -8 6 7 5 9 11 5 13 -5 3 -4 3 3 2 7 -2 15 1 18 6 4 6 1 10 -6 10 -7 0
-9 3 -6 7 4 3 0 11 -8 17 -11 8 -12 15 -4 26 9 13 10 12 5 -3 -5 -14 -1 -16
22 -11 15 3 36 6 47 5 15 0 16 2 6 8 -11 7 -11 9 0 13 8 3 -1 5 -19 5 -22 0
-29 -3 -20 -9 10 -8 10 -9 -1 -6 -8 2 -15 15 -17 29 -1 13 0 18 2 12 8 -19 20
-16 21 6 1 14 -3 18 -15 14 -14 -4 -14 -3 -2 5 8 6 18 8 24 5 5 -4 7 1 3 11
-4 10 -7 20 -7 22 0 3 -5 2 -12 -2 -7 -4 -8 -3 -4 4 12 20 32 2 32 -28 0 -17
-3 -30 -6 -30 -4 0 -7 -7 -7 -15 0 -12 3 -12 17 3 10 9 13 19 8 20 -4 2 -5 9
-1 15 3 6 7 26 9 44 1 28 -1 33 -15 29 -14 -6 -14 -5 1 7 15 12 15 14 0 25
-15 10 -15 11 3 5 18 -6 19 -5 5 12 -9 11 -10 16 -2 11 6 -4 12 -3 12 2 0 15
-26 33 -35 24 -5 -4 -5 -1 -1 6 6 10 11 10 22 1 17 -14 19 2 2 20 -10 11 -10
13 0 7 8 -5 12 0 12 14 0 12 -4 18 -10 15 -6 -3 -10 -1 -10 4 0 6 3 11 8 11
12 0 12 113 -1 129 -9 12 -9 13 0 7 10 -5 12 3 11 33 -1 26 -5 38 -12 34 -6
-3 -5 0 2 8 17 18 17 103 0 93 -10 -6 -10 -5 -2 7 17 21 19 230 2 240 -10 7
-10 9 0 9 9 0 12 48 12 206 0 161 -3 204 -12 198 -10 -6 -10 -4 0 7 8 9 12 48
12 119 0 71 -4 110 -12 119 -10 11 -10 13 0 7 8 -5 12 2 12 24 0 22 -4 29 -12
24 -10 -6 -10 -5 -1 7 15 19 15 341 -1 351 -8 6 -8 8 1 8 6 0 11 16 11 36 0
25 -3 32 -9 23 -6 -10 -8 -8 -6 8 0 12 5 19 9 17 4 -3 8 4 8 15 0 12 -6 21
-12 21 -9 0 -8 4 2 10 13 9 13 11 0 20 -10 6 -11 10 -2 10 15 0 16 27 0 32 -6
2 -12 15 -14 29 -1 13 -3 26 -3 28 -1 3 -8 -4 -17 -15 -15 -18 -15 -18 -5 3 9
18 7 24 -11 37 -12 9 -18 16 -13 16 6 0 3 5 -5 10 -8 5 -10 10 -5 11 6 0 18 2
28 4 10 2 14 -1 11 -7 -5 -7 -2 -8 6 -3 9 5 11 4 6 -3 -5 -8 -1 -10 10 -5 14
5 14 7 2 14 -8 5 -14 18 -12 31 1 13 3 31 3 41 1 11 6 15 13 11 6 -4 8 -3 4 4
-3 6 -15 9 -25 7 -25 -5 -35 22 -13 34 10 6 12 11 5 11 -7 0 -13 5 -13 11 0 5
5 7 12 3 6 -4 8 -3 4 4 -3 5 0 13 6 15 9 4 10 6 1 6 -16 1 -44 -40 -36 -52 3
-6 1 -7 -5 -3 -7 4 -9 -1 -6 -16 3 -13 7 -30 8 -38 3 -24 16 -41 27 -35 5 4 9
1 9 -5 0 -7 -6 -10 -14 -7 -7 3 -19 0 -25 -6 -15 -15 -27 -1 -13 16 7 8 9 17
5 20 -3 4 -12 -1 -20 -11 -13 -15 -13 -15 -3 6 9 18 8 27 -2 40 -8 10 -9 13
-1 9 8 -5 11 0 10 13 -1 14 -6 19 -17 15 -12 -5 -13 -4 -2 6 13 14 17 33 4 25
-4 -2 -14 0 -22 6 -13 8 -12 9 2 5 19 -7 45 18 29 27 -5 3 -12 0 -15 -6 -3 -7
-3 -2 0 11 4 14 2 21 -4 17 -5 -3 -20 3 -33 13 -19 16 -21 21 -11 34 11 13 9
18 -9 31 l-22 15 24 21 c20 18 21 21 4 15 -11 -3 -16 -2 -11 2 4 4 20 8 34 8
22 0 27 5 29 28 2 28 -10 36 -23 15 -4 -6 -3 -8 2 -5 6 3 11 -4 11 -16 2 -15
0 -18 -6 -9 -5 8 -12 13 -17 13 -5 -1 -9 5 -9 12 0 6 -9 10 -20 9 -16 -3 -17
-1 -8 9 9 9 15 9 26 0 12 -9 16 -8 21 4 3 8 2 23 -1 33 -6 15 -5 16 13 2 18
-14 18 -14 2 6 -14 16 -15 23 -6 32 7 7 9 12 5 12 -3 0 -15 -9 -25 -20 -18
-19 -20 -20 -33 -3 -12 15 -12 16 4 10 11 -4 16 -3 12 3 -3 6 0 10 7 10 8 0 6
5 -5 11 -9 5 -21 7 -27 4 -5 -3 -14 5 -21 17 -11 21 -11 22 5 9 9 -8 19 -11
23 -7 3 3 1 6 -5 6 -6 0 -9 9 -7 21 3 17 2 19 -10 9 -8 -6 -18 -9 -24 -6 -11
7 -41 -3 -41 -13 0 -4 7 -8 15 -8 8 0 12 4 9 9 -3 4 0 8 5 8 10 0 15 -14 12
-32 0 -5 4 -8 10 -8 5 0 7 -5 3 -12 -5 -7 -3 -8 6 -3 9 6 11 4 5 -5 -6 -9 -4
-11 6 -5 12 7 12 6 1 -7 -11 -14 -10 -17 10 -24 13 -4 27 -7 31 -6 5 1 6 -2 2
-8 -3 -5 -1 -10 4 -10 6 0 11 -5 11 -11 0 -6 -5 -7 -12 -2 -20 12 -50 14 -43
3 3 -5 1 -10 -5 -10 -6 0 -10 6 -9 13 3 27 -1 38 -13 31 -10 -6 -10 -5 -1 7 9
11 8 18 -2 32 -7 10 -16 14 -19 8 -3 -5 0 -11 6 -14 7 -2 10 -8 6 -12 -9 -10
-19 -2 -22 17 -3 20 -37 68 -48 68 -6 0 -5 -7 2 -15 11 -13 11 -18 0 -28 -10
-10 -12 -9 -7 5 8 22 -3 30 -22 15 -14 -11 -15 -10 -1 7 18 23 22 48 7 43 -7
-2 -12 -10 -12 -18 0 -17 -27 -19 -31 -1 -1 7 0 8 3 2 2 -5 9 -10 14 -10 6 0
8 4 4 9 -3 5 -1 12 5 16 5 3 10 11 10 17 0 6 -7 5 -17 -3 -17 -13 -17 -13 0 7
9 11 14 24 11 27 -4 4 -13 -1 -20 -11 -11 -14 -15 -15 -26 -3 -11 12 -10 13 5
7 13 -4 17 -2 14 6 -2 7 -17 12 -33 11 -16 -1 -22 1 -14 4 8 3 19 12 23 20 7
11 12 11 23 2 7 -6 12 -15 9 -19 -3 -5 3 -7 12 -5 10 1 23 -2 29 -7 8 -5 14
-3 17 6 4 11 1 13 -10 9 -11 -4 -14 -2 -9 5 4 7 2 12 -3 12 -6 0 -11 -5 -11
-11 0 -5 -4 -8 -9 -4 -10 6 -7 37 5 57 4 7 3 8 -4 4 -7 -4 -12 -2 -12 4 0 7
-7 9 -16 6 -12 -5 -15 -2 -10 9 3 9 2 14 -3 11 -5 -3 -12 1 -15 10 -5 14 -9
14 -22 3 -14 -11 -15 -10 -12 7 2 13 -3 19 -16 19 -11 0 -21 6 -24 14 -3 8 0
11 7 7 7 -5 9 -1 5 9 -6 14 -8 14 -19 -2 -9 -12 -10 -20 -3 -24 6 -4 6 -8 -3
-11 -7 -2 2 -10 19 -17 37 -16 52 -42 19 -34 -12 3 -30 5 -41 4 -18 0 -18 0 0
15 18 15 18 15 1 10 -10 -3 -16 -2 -12 3 3 5 0 11 -6 13 -8 3 -6 14 5 37 10
18 15 35 13 38 -3 2 -8 -5 -12 -16 -3 -12 -11 -18 -17 -15 -6 4 -8 2 -5 -3 4
-6 -1 -19 -11 -30 -9 -10 -14 -14 -9 -9 11 16 8 28 -6 20 -9 -6 -9 -4 1 7 16
17 16 37 0 21 -15 -15 -28 -15 -28 -1 0 5 4 8 9 4 5 -3 12 -1 16 4 3 6 12 8
19 5 17 -6 31 12 16 21 -6 4 -8 11 -4 16 3 5 10 6 16 3 7 -4 8 -2 4 4 -5 9
-12 9 -26 0 -16 -11 -17 -13 -3 -23 13 -10 11 -12 -14 -12 -22 0 -35 8 -52 34
-12 19 -19 39 -15 45 7 11 -1 10 -51 -6 -15 -5 -15 -4 3 5 12 7 22 19 22 27 0
12 2 12 17 1 13 -11 17 -11 20 -1 3 6 10 9 15 6 7 -4 8 -2 4 5 -6 9 -11 9 -21
1 -9 -8 -14 -8 -17 0 -2 6 -11 8 -21 5 -9 -4 -14 -12 -10 -19 3 -6 -3 -3 -15
7 -16 15 -19 24 -12 42 7 19 4 26 -15 39 -14 9 -24 22 -22 28 1 7 -2 12 -8 13
-24 1 -36 17 -25 30 9 10 6 16 -9 25 -14 7 -21 7 -21 0 0 -5 7 -10 17 -10 14
0 14 -3 -3 -22 -10 -12 -14 -18 -7 -15 8 5 9 0 5 -15 -5 -19 -7 -20 -10 -5 -2
10 -8 14 -15 10 -7 -4 -6 1 2 10 10 13 11 20 2 30 -6 8 -8 16 -5 20 3 3 -3 3
-15 0 -13 -3 -21 -1 -21 6 0 7 5 9 12 5 6 -4 8 -3 4 4 -3 6 -2 13 4 17 5 3 10
11 10 18 0 6 -7 2 -16 -9 -15 -19 -16 -19 -10 1 6 19 5 19 -8 3 -14 -18 -32
-25 -21 -9 7 12 -24 43 -36 35 -5 -3 -7 -10 -3 -15 3 -5 10 -6 16 -3 7 5 8 2
3 -6 -5 -9 -4 -11 4 -6 6 4 11 4 10 -1 -3 -20 2 -34 11 -28 6 3 10 1 10 -4 0
-19 -17 -12 -41 18 -13 16 -28 27 -34 23 -5 -3 -2 6 8 21 9 15 13 27 7 27 -5
0 -10 -5 -10 -11 0 -5 -5 -7 -10 -4 -6 4 -9 3 -8 -2 2 -4 0 -9 -4 -10 -18 -6
-28 -2 -28 13 0 9 -6 14 -12 11 -7 -2 -12 -11 -10 -18 2 -8 0 -10 -4 -6 -11
11 -14 38 -4 32 5 -3 11 -1 15 5 3 5 11 10 16 10 6 0 8 -4 5 -9 -3 -4 1 -17 9
-27 13 -16 14 -17 9 -1 -4 10 -1 17 7 17 8 0 5 6 -7 15 -23 16 -81 6 -77 -13
2 -7 -4 -9 -14 -5 -11 4 -13 8 -5 11 7 2 9 9 6 14 -5 7 -2 8 6 3 9 -5 11 -4 6
3 -4 7 -15 12 -24 12 -15 0 -15 2 -2 10 8 5 11 10 5 10 -14 -1 -46 -26 -40
-32 3 -2 -2 -5 -10 -5 -21 0 -19 10 5 25 21 13 27 32 9 32 -5 0 -8 -4 -5 -9 3
-5 -1 -11 -9 -15 -9 -3 -15 0 -15 8 0 8 -6 16 -14 19 -28 11 -2666 7 -2666 -4z
m74 -8 c4 -5 -3 -7 -14 -4 -23 6 -26 13 -6 13 8 0 17 -4 20 -9z m56 5 c0 -3
-4 -8 -10 -11 -5 -3 -10 -1 -10 4 0 6 5 11 10 11 6 0 10 -2 10 -4z m2460 -6
c0 -5 -2 -10 -4 -10 -3 0 -8 5 -11 10 -3 6 -1 10 4 10 6 0 11 -4 11 -10z m73
-9 c5 -19 -15 -23 -30 -6 -4 4 -2 5 5 1 7 -4 12 -1 12 8 0 22 7 20 13 -3z m72
-31 c3 -5 1 -10 -4 -10 -6 0 -11 5 -11 10 0 6 2 10 4 10 3 0 8 -4 11 -10z
m139 -98 c3 -5 -1 -9 -9 -9 -8 0 -12 4 -9 9 3 4 7 8 9 8 2 0 6 -4 9 -8z
m-3094 -18 c0 -8 -19 -13 -24 -6 -3 5 1 9 9 9 8 0 15 -2 15 -3z m3205 -36 c3
-2 -5 -13 -17 -24 -13 -10 -18 -12 -11 -5 10 11 9 17 -4 26 -14 10 -13 12 5
10 12 -1 24 -4 27 -7z m-3332 -33 c-3 -9 -8 -14 -10 -11 -3 3 -2 9 2 15 9 16
15 13 8 -4z m3401 -7 c4 4 6 3 4 -3 -4 -14 27 -56 36 -48 4 4 4 -1 0 -12 -5
-11 -9 -14 -12 -7 -2 7 -8 10 -13 7 -5 -4 -6 1 -3 9 5 12 0 14 -23 10 -21 -3
-24 -2 -13 6 13 9 13 10 0 11 -11 0 -11 2 -2 6 10 4 10 8 0 21 -11 15 -11 15
3 5 9 -7 19 -9 23 -5z m-3459 -56 c-3 -3 -11 0 -18 7 -9 10 -8 11 6 5 10 -3
15 -9 12 -12z m3395 -28 c0 -8 -19 -13 -24 -6 -3 5 1 9 9 9 8 0 15 -2 15 -3z
m-3435 -34 c-1 -11 -4 -22 -7 -25 -4 -5 -4 34 1 43 4 8 7 -1 6 -18z m-70 -30
c-3 -5 0 -10 7 -10 9 0 9 -3 -2 -10 -14 -9 -13 -11 9 -14 5 0 12 -4 16 -8 6
-5 -19 -4 -35 2 -3 1 -8 2 -12 1 -3 0 -5 5 -4 12 2 15 15 37 22 37 3 0 2 -4
-1 -10z m3675 -34 c0 -3 -4 -8 -10 -11 -5 -3 -10 -1 -10 4 0 6 5 11 10 11 6 0
10 -2 10 -4z m20 -38 c10 -21 10 -21 -3 -6 -8 10 -18 14 -22 10 -5 -4 -5 -1
-1 6 10 17 14 15 26 -10z m-3694 -10 c4 -7 4 -10 -1 -6 -4 4 -15 2 -24 -5 -14
-11 -14 -10 -2 6 16 20 18 21 27 5z m3854 -62 c0 -3 -4 -8 -10 -11 -5 -3 -10
-1 -10 4 0 6 5 11 10 11 6 0 10 -2 10 -4z m-82 -41 c0 -14 -5 -25 -11 -25 -6
0 -7 3 -4 7 4 3 1 13 -6 21 -9 13 -9 14 1 8 6 -4 12 -2 12 3 0 6 2 11 4 11 2
0 4 -11 4 -25z m144 -20 c7 0 14 -10 14 -23 1 -16 -2 -20 -11 -12 -7 6 -20 8
-29 4 -11 -4 -16 -1 -16 12 0 13 -3 15 -8 7 -4 -7 -13 -9 -21 -4 -9 6 -7 10 9
14 12 3 19 10 15 16 -3 6 -3 16 1 22 4 8 11 3 20 -12 7 -13 18 -24 26 -24z
m-177 5 c3 -6 -1 -7 -9 -4 -18 7 -21 14 -7 14 6 0 13 -4 16 -10z m75 -24 c0
-2 -9 -6 -20 -9 -11 -3 -18 -1 -14 4 5 9 34 13 34 5z m40 -17 c12 -8 10 -9 -7
-4 -19 5 -22 3 -17 -12 5 -14 4 -15 -4 -3 -19 25 0 38 28 19z m-85 -8 c3 -5 2
-12 -3 -15 -5 -3 -9 1 -9 9 0 17 3 19 12 6z m49 -27 c3 -8 2 -12 -4 -9 -6 3
-10 10 -10 16 0 14 7 11 14 -7z m-13 -31 c12 -16 12 -17 -2 -6 -9 7 -20 9 -24
5 -5 -4 -5 -1 -1 6 9 16 11 15 27 -5z m79 2 c19 -22 8 -25 -12 -3 -10 10 -14
18 -9 18 5 0 14 -7 21 -15z m-4010 -15 c0 -5 -5 -10 -11 -10 -5 0 -7 5 -4 10
3 6 8 10 11 10 2 0 4 -4 4 -10z m3977 4 c-3 -3 -12 -4 -19 -1 -8 3 -5 6 6 6
11 1 17 -2 13 -5z m-3922 -13 c3 -5 2 -12 -3 -15 -5 -3 -9 1 -9 9 0 17 3 19
12 6z m3941 0 c-4 -5 -1 -11 6 -13 8 -3 6 -6 -4 -10 -11 -5 -15 -2 -13 10 5
23 4 22 11 22 3 0 3 -4 0 -9z m-3976 -45 c0 -2 -7 -6 -15 -10 -8 -3 -15 -1
-15 4 0 6 7 10 15 10 8 0 15 -2 15 -4z m3990 -1 c0 -2 -6 -8 -13 -14 -10 -8
-14 -7 -14 2 0 8 6 14 14 14 7 0 13 -1 13 -2z m40 -5 c12 -7 10 -9 -8 -7 -12
0 -22 5 -22 9 0 11 12 10 30 -2z m-4020 -14 c0 -2 -8 -10 -17 -17 -16 -13 -17
-12 -4 4 13 16 21 21 21 13z m4051 -33 c-12 -20 -14 -14 -5 12 4 9 9 14 11 11
3 -2 0 -13 -6 -23z m-87 1 c3 -8 2 -12 -4 -9 -6 3 -10 10 -10 16 0 14 7 11 14
-7z m-3954 -14 c0 -5 -2 -10 -4 -10 -3 0 -8 5 -11 10 -3 6 -1 10 4 10 6 0 11
-4 11 -10z m3934 -6 c3 -8 2 -12 -4 -9 -6 3 -10 10 -10 16 0 14 7 11 14 -7z
m170 8 c3 -5 -1 -9 -9 -9 -8 0 -15 4 -15 9 0 4 4 8 9 8 6 0 12 -4 15 -8z
m-111 -22 c3 -11 1 -18 -4 -14 -5 3 -9 12 -9 20 0 20 7 17 13 -6z m-4023 6 c0
-2 -8 -10 -17 -17 -16 -13 -17 -12 -4 4 13 16 21 21 21 13z m4061 -19 c-10 -9
-11 -8 -5 6 3 10 9 15 12 12 3 -3 0 -11 -7 -18z m73 -3 c3 -8 2 -12 -4 -9 -6
3 -10 10 -10 16 0 14 7 11 14 -7z m43 -10 c-3 -3 -12 -4 -19 -1 -8 3 -5 6 6 6
11 1 17 -2 13 -5z m-4207 -14 c0 -4 -6 -7 -12 -7 -7 0 -19 -2 -27 -4 -7 -2
-15 1 -18 7 -2 6 9 11 27 11 16 0 30 -3 30 -7z m40 6 c0 -2 -7 -7 -16 -10 -8
-3 -12 -2 -9 4 6 10 25 14 25 6z m4075 -25 c3 -5 2 -12 -3 -15 -5 -3 -9 1 -9
9 0 17 3 19 12 6z m88 3 c-7 -3 -9 -12 -6 -20 3 -8 1 -14 -5 -14 -8 0 -9 16
-3 38 1 1 7 2 14 1 9 0 9 -2 0 -5z m-172 -37 c-10 -9 -11 -8 -5 6 3 10 9 15
12 12 3 -3 0 -11 -7 -18z m223 -7 c-6 -6 -15 -5 -24 1 -13 9 -12 10 3 5 9 -3
17 0 17 6 0 6 3 8 7 5 4 -4 2 -12 -3 -17z m-79 -10 c-3 -5 0 -10 7 -11 10 0
10 -2 0 -6 -6 -2 -9 -10 -6 -15 4 -7 2 -8 -5 -4 -6 4 -9 12 -6 17 4 5 0 9 -7
9 -9 0 -9 3 2 10 19 12 23 12 15 0z m63 -25 c-3 -3 -9 2 -12 12 -6 14 -5 15 5
6 7 -7 10 -15 7 -18z m-4322 -20 c1 -8 -2 -15 -6 -15 -5 0 -8 9 -7 20 1 21 10
18 13 -5z m4239 -15 c1 -17 0 -32 -4 -34 -3 -2 -7 13 -7 35 -1 45 7 45 11 -1z
m69 24 c9 -24 2 -26 -12 -4 -7 11 -8 20 -3 20 5 0 12 -7 15 -16z m-144 2 c0
-2 -8 -10 -17 -17 -16 -13 -17 -12 -4 4 13 16 21 21 21 13z m115 -16 c-3 -5
-1 -10 6 -10 7 0 10 -2 7 -5 -3 -3 -13 -2 -22 1 -14 5 -15 9 -4 15 17 11 20
11 13 -1z m45 -31 c0 -5 5 -7 12 -3 7 4 8 3 4 -5 -6 -9 -11 -9 -22 0 -17 14
-18 19 -4 19 6 0 10 -5 10 -11z m-67 -24 c-3 -9 -8 -14 -10 -11 -3 3 -2 9 2
15 9 16 15 13 8 -4z m-81 -6 c2 -2 1 -3 -1 -2 -2 2 -9 -2 -16 -7 -8 -7 -12 -5
-12 4 0 12 22 16 29 5z m99 -12 c-10 -9 -11 -8 -5 6 3 10 9 15 12 12 3 -3 0
-11 -7 -18z m50 -10 c-10 -9 -11 -8 -5 6 3 10 9 15 12 12 3 -3 0 -11 -7 -18z
m-4311 7 c0 -8 -19 -13 -24 -6 -3 5 1 9 9 9 8 0 15 -2 15 -3z m4286 -9 c-1 -8
-5 -17 -8 -21 -5 -4 -4 16 1 34 3 9 9 -1 7 -13z m-36 -15 c0 -5 -5 -10 -11
-10 -5 0 -7 5 -4 10 3 6 8 10 11 10 2 0 4 -4 4 -10z m118 -25 c-3 -3 -9 2 -12
12 -6 14 -5 15 5 6 7 -7 10 -15 7 -18z m-25 0 c4 -8 3 -16 -1 -19 -4 -3 -9 4
-9 15 -2 23 3 25 10 4z m125 -119 c-2 -12 -7 -21 -12 -21 -5 0 -10 9 -11 21
-1 12 5 21 12 21 8 0 13 -9 11 -21z m-58 -76 c0 -4 -7 -7 -15 -6 -23 3 -26 12
-5 13 11 1 20 -2 20 -7z m40 -50 c0 -6 -9 -2 -20 7 -11 10 -20 19 -20 21 0 1
9 -2 20 -8 11 -6 20 -15 20 -20z m-4460 -790 c0 -5 -5 -10 -11 -10 -5 0 -7 5
-4 10 3 6 8 10 11 10 2 0 4 -4 4 -10z m5 -598 c-3 -3 -11 0 -18 7 -9 10 -8 11
6 5 10 -3 15 -9 12 -12z m0 -42 c3 -6 -1 -7 -9 -4 -18 7 -21 14 -7 14 6 0 13
-4 16 -10z m-5 -31 c0 -5 -4 -9 -8 -9 -5 0 -9 7 -9 15 0 8 4 12 9 9 4 -3 8 -9
8 -15z m0 -29 c0 -5 -4 -10 -10 -10 -5 0 -10 5 -10 10 0 6 5 10 10 10 6 0 10
-4 10 -10z m54 -26 c3 -8 2 -12 -4 -9 -6 3 -10 10 -10 16 0 14 7 11 14 -7z
m-17 -20 c-3 -3 -12 -4 -19 -1 -8 3 -5 6 6 6 11 1 17 -2 13 -5z m37 -47 c-3
-9 -11 -17 -17 -17 -6 0 -8 3 -4 6 3 4 -4 15 -16 26 l-22 19 28 -17 c27 -16
36 -9 17 14 -5 7 -3 6 5 -1 9 -8 13 -21 9 -30z m35 -94 c14 11 14 10 2 -6 -10
-13 -17 -15 -27 -6 -8 6 -14 14 -14 17 0 3 5 1 12 -6 9 -9 15 -9 27 1z m-34
-111 c-3 -3 -11 0 -18 7 -9 10 -8 11 6 5 10 -3 15 -9 12 -12z m119 -87 c3 -8
1 -15 -4 -15 -6 0 -10 7 -10 15 0 8 2 15 4 15 2 0 6 -7 10 -15z m-113 -17 c0
-7 2 -21 4 -31 3 -18 2 -18 -15 -2 -10 9 -16 23 -13 31 6 17 23 18 24 2z m135
-67 c0 -11 -4 -17 -8 -15 -4 3 -8 12 -8 20 0 8 4 14 8 14 4 0 8 -9 8 -19z
m-96 -15 c0 -2 -7 -7 -16 -10 -8 -3 -12 -2 -9 4 6 10 25 14 25 6z m55 -54 c0
-9 7 -17 15 -17 8 0 15 -4 15 -10 0 -5 4 -16 9 -23 5 -8 4 -18 -3 -25 -7 -7
-7 -15 -1 -22 6 -8 4 -18 -6 -31 -8 -10 -13 -13 -9 -7 3 7 -4 26 -16 42 -12
16 -18 35 -14 43 3 7 -1 4 -9 -6 -9 -11 -16 -15 -16 -9 0 7 5 15 10 18 6 4 7
11 4 17 -4 6 1 6 14 -1 14 -8 23 -8 27 -1 4 6 3 9 -2 8 -4 -1 -18 4 -31 11
-17 9 -21 16 -13 25 6 7 9 15 7 18 -1 3 2 1 8 -4 6 -5 11 -16 11 -26z m99 12
c3 -8 2 -12 -4 -9 -6 3 -10 10 -10 16 0 14 7 11 14 -7z m4203 -24 c1 -11 -2
-20 -7 -20 -6 0 -7 17 -1 38 3 8 7 -1 8 -18z m33 -30 c0 -5 -2 -10 -4 -10 -3
0 -8 5 -11 10 -3 6 -1 10 4 10 6 0 11 -4 11 -10z m-4150 -150 c-6 -11 -15 -20
-20 -20 -6 0 -2 9 7 20 10 11 19 20 21 20 1 0 -2 -9 -8 -20z m37 5 c0 -8 -4
-12 -9 -9 -5 3 -6 10 -3 15 9 13 12 11 12 -6z m-22 -25 c-3 -5 -1 -10 6 -10 7
0 10 -3 6 -6 -9 -9 -28 6 -22 17 4 5 8 9 11 9 3 0 2 -4 -1 -10z m4089 -58 c3
-5 -8 -22 -24 -37 -17 -16 -30 -24 -30 -18 0 6 7 13 15 17 8 3 15 9 14 13 -5
29 12 45 25 25z m-4034 -31 c-17 -5 -21 -9 -12 -15 6 -4 18 -4 25 -1 6 4 3 -1
-7 -9 -23 -19 -32 -20 -41 -6 -4 6 1 7 12 3 15 -6 16 -4 6 9 -15 18 -7 28 21
27 18 -1 18 -2 -4 -8z m3967 -13 c2 -17 0 -19 -7 -8 -5 8 -6 18 -4 22 8 12 10
10 11 -14z m-3941 -27 c-4 -5 0 -12 6 -14 18 -7 -10 -27 -28 -20 -6 2 -15 0
-19 -6 -9 -16 -32 -13 -32 4 0 10 4 11 11 6 7 -6 20 -1 35 15 23 24 37 32 27
15z m81 -21 c1 -16 -1 -17 -12 -7 -11 10 -8 19 10 27 1 0 1 -9 2 -20z m-37 0
c0 -5 -4 -10 -10 -10 -5 0 -10 5 -10 10 0 6 5 10 10 10 6 0 10 -4 10 -10z
m3755 -20 c3 -5 1 -10 -4 -10 -6 0 -11 5 -11 10 0 6 2 10 4 10 3 0 8 -4 11
-10z m43 -1 c-2 -6 5 -13 15 -14 11 -2 22 -7 25 -11 4 -4 -1 -4 -10 -1 -20 7
-21 6 -12 -18 6 -14 8 -14 24 0 15 14 18 14 30 0 7 -8 10 -16 6 -16 -3 -1 -9
-2 -14 -3 -14 -2 -65 -46 -53 -46 7 0 9 -5 5 -11 -3 -6 -9 -7 -13 -3 -11 16
-34 16 -27 -1 8 -20 14 -42 8 -32 -2 4 -10 3 -18 -4 -8 -6 -12 -15 -9 -19 2
-4 -7 -18 -20 -30 -14 -13 -25 -20 -25 -16 0 5 -6 3 -14 -3 -11 -9 -16 -9 -21
0 -9 13 14 31 29 22 5 -4 7 1 3 10 -9 25 2 47 20 40 12 -5 14 -3 8 8 -7 12 -6
12 8 1 14 -12 16 -11 15 10 -1 13 -6 29 -12 37 -8 11 -8 13 0 8 7 -4 14 0 18
8 6 17 26 20 26 4 0 -5 -4 -7 -10 -4 -5 3 -10 2 -10 -4 0 -20 19 -21 30 -2 8
16 6 22 -7 31 -17 11 -17 11 0 6 21 -7 22 3 2 30 -8 12 -11 24 -8 28 9 9 13 7
11 -5z m-3766 -41 c-8 -8 -9 -4 -5 13 4 13 8 18 11 10 2 -7 -1 -18 -6 -23z
m73 22 c2 -4 -3 -7 -13 -6 -10 0 -16 -5 -14 -14 2 -8 0 -11 -4 -7 -15 15 -11
33 7 34 10 1 21 -2 24 -7z m30 0 c3 -5 1 -10 -4 -10 -6 0 -11 5 -11 10 0 6 2
10 4 10 3 0 8 -4 11 -10z m3610 -20 c3 -6 -1 -7 -9 -4 -18 7 -21 14 -7 14 6 0
13 -4 16 -10z m-3648 -22 c-3 -8 -6 -5 -6 6 -1 11 2 17 5 13 3 -3 4 -12 1 -19z
m56 -31 c4 3 7 1 7 -5 0 -17 -15 -15 -30 3 -11 13 -15 13 -21 3 -5 -7 -9 -8
-9 -2 0 20 13 24 30 9 9 -8 20 -12 23 -8z m-66 -19 c-3 -8 -6 -5 -6 6 -1 11 2
17 5 13 3 -3 4 -12 1 -19z m155 4 c-7 -2 -9 -9 -5 -15 3 -7 2 -8 -2 -4 -16 14
-14 36 3 29 10 -4 12 -7 4 -10z m3472 -18 c3 -8 2 -12 -4 -9 -6 3 -10 10 -10
16 0 14 7 11 14 -7z m26 6 c0 -5 -2 -10 -4 -10 -3 0 -8 5 -11 10 -3 6 -1 10 4
10 6 0 11 -4 11 -10z m-3449 -27 c13 -16 12 -17 -3 -4 -10 7 -18 15 -18 17 0
8 8 3 21 -13z m-57 -5 c-5 -8 -2 -9 10 -5 11 5 15 3 10 -5 -5 -8 -1 -9 12 -4
14 5 16 4 8 -4 -9 -9 -17 -9 -33 0 -18 9 -21 30 -5 30 3 0 2 -5 -2 -12z m101
-8 c3 -5 1 -10 -4 -10 -6 0 -11 5 -11 10 0 6 2 10 4 10 3 0 8 -4 11 -10z
m3350 -18 c-3 -3 -11 0 -18 7 -9 10 -8 11 6 5 10 -3 15 -9 12 -12z m-3385 -37
c14 -19 14 -19 -2 -6 -10 7 -18 18 -18 24 0 6 1 8 3 6 1 -2 9 -13 17 -24z m54
17 c2 -4 -5 -9 -17 -9 -17 -2 -19 0 -7 7 18 12 18 12 24 2z m3306 -2 c0 -5 -4
-10 -10 -10 -5 0 -10 5 -10 10 0 6 5 10 10 10 6 0 10 -4 10 -10z m-3390 -21
c0 -5 -4 -7 -10 -4 -5 3 -10 1 -10 -6 0 -7 -3 -10 -6 -6 -8 7 4 27 17 27 5 0
9 -5 9 -11z m3306 -8 c-4 -5 -2 -11 4 -13 6 -2 1 -9 -11 -16 -17 -11 -20 -11
-13 0 5 7 9 16 10 21 3 15 4 17 10 17 3 0 3 -4 0 -9z m-3196 -5 c0 -2 -7 -7
-16 -10 -8 -3 -12 -2 -9 4 6 10 25 14 25 6z m-61 -19 c8 -10 7 -14 -2 -14 -8
0 -14 6 -14 14 0 7 1 13 2 13 2 0 8 -6 14 -13z m3158 -32 c0 -8 -4 -12 -9 -9
-5 3 -6 10 -3 15 9 13 12 11 12 -6z m-3150 -27 c-3 -8 -6 -5 -6 6 -1 11 2 17
5 13 3 -3 4 -12 1 -19z m3064 5 c13 -16 12 -17 -3 -4 -10 7 -18 15 -18 17 0 8
8 3 21 -13z m139 7 c-8 -5 -19 -10 -25 -10 -5 0 -3 5 5 10 8 5 20 10 25 10 6
0 3 -5 -5 -10z m-3155 -29 c0 -16 -3 -27 -7 -25 -6 4 -5 29 1 52 4 11 7 -3 6
-27z m45 15 c0 -3 -4 -8 -10 -11 -5 -3 -10 -1 -10 4 0 6 5 11 10 11 6 0 10 -2
10 -4z m3015 -16 c-3 -5 -12 -10 -18 -10 -7 0 -6 4 3 10 19 12 23 12 15 0z
m184 3 c14 11 14 10 2 -6 -16 -20 -58 -46 -47 -29 3 6 0 13 -6 15 -10 4 -9 8
2 16 9 6 18 7 24 1 6 -6 16 -5 25 3z m-3124 -21 c-3 -3 -11 0 -18 7 -9 10 -8
11 6 5 10 -3 15 -9 12 -12z m45 12 c0 -8 -19 -13 -24 -6 -3 5 1 9 9 9 8 0 15
-2 15 -3z m-80 -28 c-7 -7 -13 -7 -20 0 -6 6 -3 10 10 10 13 0 16 -4 10 -10z
m80 -16 c0 -5 -6 -9 -12 -7 -7 1 -12 -4 -10 -11 1 -8 -2 -11 -8 -7 -8 5 -7 11
1 21 13 16 29 18 29 4z m2830 -5 c11 -13 10 -14 -4 -9 -9 3 -16 10 -16 15 0
13 6 11 20 -6z m30 5 c0 -5 -2 -10 -4 -10 -3 0 -8 5 -11 10 -3 6 -1 10 4 10 6
0 11 -4 11 -10z m-52 -108 c17 -18 26 -52 12 -52 -4 0 -15 10 -26 22 -15 19
-16 20 -1 9 12 -9 17 -10 17 -2 0 6 -7 14 -15 17 -8 4 -15 10 -15 15 0 14 8
11 28 -9z m-2671 -24 c2 -17 0 -19 -7 -8 -5 8 -6 18 -4 22 8 12 10 10 11 -14z
m2546 -55 c-4 -10 -9 -10 -18 -3 -6 5 -16 6 -20 2 -5 -4 -6 -2 -2 3 8 16 46
13 40 -2z m-2446 -18 c0 -8 -4 -12 -9 -9 -4 3 -8 9 -8 15 0 5 4 9 8 9 5 0 9
-7 9 -15z m2377 7 c3 -5 -1 -9 -9 -9 -8 0 -12 4 -9 9 3 4 7 8 9 8 2 0 6 -4 9
-8z m-2257 -57 c0 -8 -4 -12 -9 -9 -5 3 -6 10 -3 15 9 13 12 11 12 -6z m2236
-19 c8 5 7 2 -1 -7 -11 -12 -14 -12 -22 1 -5 8 -10 20 -10 25 1 6 5 2 11 -8 6
-9 16 -14 22 -11z m-2053 -11 c0 -2 -6 -5 -13 -8 -8 -3 -14 1 -14 8 0 7 6 11
14 8 7 -3 13 -6 13 -8z m350 -5 c-20 -13 -30 -12 -30 1 0 5 4 8 9 4 5 -3 13 0
16 6 4 5 10 8 13 4 4 -3 0 -10 -8 -15z m81 3 c12 -16 12 -17 -2 -6 -9 7 -20 9
-24 5 -5 -4 -5 -1 -1 6 9 16 11 15 27 -5z m192 0 c-3 -7 -6 -13 -8 -13 -2 0
-5 6 -8 13 -3 8 1 14 8 14 7 0 11 -6 8 -14z m372 7 c3 -5 1 -10 -4 -10 -6 0
-11 5 -11 10 0 6 2 10 4 10 3 0 8 -4 11 -10z m225 4 c0 -8 -19 -13 -24 -6 -3
5 1 9 9 9 8 0 15 -2 15 -3z m73 -9 c-3 -9 -8 -14 -10 -11 -3 3 -2 9 2 15 9 16
15 13 8 -4z m407 5 c0 -5 -5 -10 -11 -10 -5 0 -7 5 -4 10 3 6 8 10 11 10 2 0
4 -4 4 -10z m87 -12 c-3 -8 -6 -5 -6 6 -1 11 2 17 5 13 3 -3 4 -12 1 -19z
m-1536 -11 c-10 -9 -11 -8 -5 6 3 10 9 15 12 12 3 -3 0 -11 -7 -18z m889 19
c0 -2 -7 -7 -16 -10 -8 -3 -12 -2 -9 4 6 10 25 14 25 6z m240 0 c0 -3 -4 -8
-10 -11 -5 -3 -10 -1 -10 4 0 6 5 11 10 11 6 0 10 -2 10 -4z m51 -19 c-10 -9
-11 -8 -5 6 3 10 9 15 12 12 3 -3 0 -11 -7 -18z m315 11 c4 -7 4 -10 -1 -6 -4
4 -14 3 -22 -3 -8 -8 -13 -8 -13 -1 0 6 6 13 13 15 6 3 13 6 14 6 1 1 5 -5 9
-11z m-976 -2 c0 -3 -4 -8 -10 -11 -5 -3 -10 -1 -10 4 0 6 5 11 10 11 6 0 10
-2 10 -4z m1080 0 c0 -3 -4 -8 -10 -11 -5 -3 -10 -1 -10 4 0 6 5 11 10 11 6 0
10 -2 10 -4z"/>
<path d="M4438 4013 c6 -2 9 -10 6 -15 -4 -7 -2 -8 5 -4 13 9 5 26 -12 25 -9
0 -8 -2 1 -6z"/>
<path d="M506 1141 c-3 -5 2 -17 12 -28 9 -10 13 -14 9 -7 -4 7 -3 15 3 19 11
7 4 25 -10 25 -5 0 -11 -4 -14 -9z"/>
<path d="M4670 765 c-7 -8 -16 -13 -19 -10 -4 2 -8 -3 -8 -11 0 -11 5 -10 22
6 12 11 25 17 30 13 4 -5 5 -2 1 5 -9 15 -11 15 -26 -3z"/>
<path d="M4558 653 c-20 -5 -25 -23 -7 -23 8 0 7 -6 -2 -17 -13 -16 -12 -17 2
-5 9 7 19 22 22 32 3 11 4 19 4 19 -1 -1 -10 -3 -19 -6z"/>
<path d="M1035 4600 c-4 -6 -10 -8 -15 -5 -5 3 -11 1 -15 -4 -7 -13 35 -5 49
9 7 7 6 10 -1 10 -7 0 -15 -5 -18 -10z"/>
<path d="M3835 4601 c-3 -5 -2 -12 3 -15 5 -3 9 1 9 9 0 17 -3 19 -12 6z"/>
<path d="M866 4542 c-2 -4 -1 -14 3 -21 6 -10 10 -9 14 3 6 16 -8 32 -17 18z"/>
<path d="M695 4420 c3 -5 8 -10 11 -10 2 0 4 5 4 10 0 6 -5 10 -11 10 -5 0 -7
-4 -4 -10z"/>
<path d="M671 4396 c-10 -11 -9 -14 1 -12 14 2 23 15 15 22 -2 2 -10 -2 -16
-10z"/>
<path d="M4115 4400 c-3 -5 -1 -10 4 -10 6 0 11 5 11 10 0 6 -2 10 -4 10 -3 0
-8 -4 -11 -10z"/>
<path d="M4175 4340 c3 -5 8 -10 11 -10 2 0 4 5 4 10 0 6 -5 10 -11 10 -5 0
-7 -4 -4 -10z"/>
<path d="M605 4329 c-4 -6 -13 -8 -20 -5 -14 5 -14 -18 0 -31 4 -4 5 -2 1 5
-4 7 -1 12 7 12 8 0 17 7 21 15 6 17 0 20 -9 4z"/>
<path d="M520 4280 c-9 -6 -10 -10 -3 -10 6 0 15 5 18 10 8 12 4 12 -15 0z"/>
<path d="M562 4286 c4 -5 0 -14 -8 -21 -15 -11 -15 -12 0 -12 9 0 16 5 16 11
0 6 4 5 9 -2 6 -11 10 -10 15 4 4 10 4 15 0 11 -4 -4 -14 -1 -23 5 -9 7 -13 8
-9 4z"/>
<path d="M4175 4281 c-6 -11 9 -23 19 -14 9 9 7 23 -3 23 -6 0 -12 -4 -16 -9z"/>
<path d="M4246 4215 c-3 -9 -2 -13 4 -10 9 5 14 -7 12 -27 -1 -3 5 -12 13 -18
11 -9 15 -9 15 -1 0 6 -4 11 -8 11 -4 0 -8 10 -9 21 -3 30 -19 44 -27 24z"/>
<path d="M4299 4193 c-13 -16 -12 -17 4 -4 16 13 21 21 13 21 -2 0 -10 -8 -17
-17z"/>
<path d="M436 4118 c3 -5 10 -6 15 -3 13 9 11 12 -6 12 -8 0 -12 -4 -9 -9z"/>
<path d="M471 4127 c2 -1 12 -9 22 -16 15 -12 17 -12 11 3 -3 9 -13 16 -22 16
-8 0 -13 -1 -11 -3z"/>
<path d="M4415 4100 c3 -5 8 -10 11 -10 2 0 4 5 4 10 0 6 -5 10 -11 10 -5 0
-7 -4 -4 -10z"/>
<path d="M4450 4099 c0 -5 5 -7 10 -4 6 3 10 8 10 11 0 2 -4 4 -10 4 -5 0 -10
-5 -10 -11z"/>
<path d="M395 4060 c3 -5 8 -10 11 -10 2 0 4 5 4 10 0 6 -5 10 -11 10 -5 0 -7
-4 -4 -10z"/>
<path d="M4370 4046 c0 -2 7 -7 16 -10 8 -3 12 -2 9 4 -6 10 -25 14 -25 6z"/>
<path d="M4535 4019 c-4 -6 -5 -12 -2 -15 2 -3 7 2 10 11 7 17 1 20 -8 4z"/>
<path d="M375 4000 c-3 -5 -1 -10 4 -10 6 0 11 5 11 10 0 6 -2 10 -4 10 -3 0
-8 -4 -11 -10z"/>
<path d="M4510 3990 c0 -5 5 -10 11 -10 5 0 7 5 4 10 -3 6 -8 10 -11 10 -2 0
-4 -4 -4 -10z"/>
<path d="M4547 3986 c-4 -10 -1 -13 8 -9 8 3 12 9 9 14 -7 12 -11 11 -17 -5z"/>
<path d="M4570 3960 c0 -5 5 -10 10 -10 6 0 10 5 10 10 0 6 -4 10 -10 10 -5 0
-10 -4 -10 -10z"/>
<path d="M4612 3945 c2 -5 -1 -12 -7 -13 -5 -2 -15 -8 -22 -14 -7 -5 -18 -6
-24 -2 -9 5 -7 10 7 15 16 6 16 8 2 8 -22 1 -34 -19 -18 -29 9 -5 9 -9 1 -14
-6 -4 -15 4 -21 18 -5 14 -11 26 -14 26 -8 0 0 -28 12 -42 6 -8 10 -17 7 -19
-2 -3 4 -10 14 -16 15 -10 23 -8 40 9 12 11 20 23 17 26 -4 3 -13 -3 -21 -14
-17 -22 -20 -12 -5 17 8 15 15 17 29 10 14 -8 17 -6 16 9 -1 11 -5 23 -9 27
-4 5 -6 4 -4 -2z m-46 -65 c0 -12 -4 -16 -9 -11 -5 5 -6 14 -3 20 10 15 12 14
12 -9z"/>
<path d="M4615 3880 c-3 -5 -1 -10 4 -10 6 0 11 5 11 10 0 6 -2 10 -4 10 -3 0
-8 -4 -11 -10z"/>
<path d="M4670 3845 c0 -5 5 -17 10 -25 5 -8 10 -10 10 -5 0 6 -5 17 -10 25
-5 8 -10 11 -10 5z"/>
<path d="M4586 3818 c3 -5 10 -6 15 -3 13 9 11 12 -6 12 -8 0 -12 -4 -9 -9z"/>
<path d="M353 3807 c0 -9 4 -17 9 -17 5 0 6 -5 3 -10 -5 -8 -11 -8 -20 0 -9 7
-16 6 -26 -7 -13 -16 -12 -17 3 -5 10 8 19 9 22 3 3 -5 3 -11 -1 -14 -5 -2 -3
-3 3 -1 6 1 16 -2 21 -7 6 -6 14 -5 22 5 8 10 9 16 1 21 -7 4 -7 13 1 28 9 19
8 20 -3 5 -13 -15 -15 -15 -24 0 -10 15 -11 15 -11 -1z m31 -48 c-3 -5 -10 -7
-15 -3 -5 3 -7 10 -3 15 3 5 10 7 15 3 5 -3 7 -10 3 -15z"/>
<path d="M4730 3780 c0 -5 5 -10 11 -10 5 0 7 5 4 10 -3 6 -8 10 -11 10 -2 0
-4 -4 -4 -10z"/>
<path d="M4790 3659 c0 -5 5 -7 10 -4 6 3 10 8 10 11 0 2 -4 4 -10 4 -5 0 -10
-5 -10 -11z"/>
<path d="M4741 3644 c0 -11 3 -14 6 -6 3 7 2 16 -1 19 -3 4 -6 -2 -5 -13z"/>
<path d="M4685 3620 c-16 -18 -16 -20 -1 -35 12 -12 13 -21 6 -35 -12 -23 10
-40 51 -40 5 0 8 -4 4 -9 -3 -5 -1 -13 5 -16 7 -4 8 -11 2 -18 -5 -7 -6 -21
-2 -32 7 -18 9 -17 21 10 7 17 12 33 11 38 -1 4 6 7 16 8 11 0 12 2 4 6 -7 3
-19 0 -26 -7 -9 -7 -16 -7 -20 -1 -4 5 2 12 12 15 10 3 18 15 19 26 1 11 -2
18 -8 15 -5 -4 -9 -13 -9 -21 0 -8 -4 -14 -10 -14 -13 0 -13 16 2 40 10 15 9
22 -5 38 -9 10 -15 21 -12 24 3 2 -6 10 -19 16 -20 9 -27 7 -41 -8z m50 -17
c28 -31 32 -51 10 -59 -8 -4 -13 -10 -10 -14 3 -5 -3 -7 -12 -6 -21 3 -27 53
-6 53 10 0 13 -7 9 -21 -5 -21 -5 -21 10 -1 14 18 13 21 -9 30 -15 6 -22 16
-19 25 5 13 3 13 -14 0 -18 -14 -18 -14 -5 3 17 22 16 22 46 -10z m45 -127 c0
-2 -8 -10 -17 -17 -16 -13 -17 -12 -4 4 13 16 21 21 21 13z"/>
<path d="M4813 3575 c0 -8 4 -12 9 -9 5 3 6 10 3 15 -9 13 -12 11 -12 -6z"/>
<path d="M4810 3540 c0 -5 5 -10 11 -10 5 0 7 5 4 10 -3 6 -8 10 -11 10 -2 0
-4 -4 -4 -10z"/>
<path d="M4816 3507 c3 -10 9 -15 12 -12 3 3 0 11 -7 18 -10 9 -11 8 -5 -6z"/>
<path d="M4756 3367 c3 -10 9 -15 12 -12 3 3 0 11 -7 18 -10 9 -11 8 -5 -6z"/>
<path d="M4830 3340 c0 -5 5 -10 11 -10 5 0 7 5 4 10 -3 6 -8 10 -11 10 -2 0
-4 -4 -4 -10z"/>
<path d="M4788 3275 c5 -11 19 -28 30 -39 12 -10 18 -24 16 -31 -3 -7 -2 -15
3 -18 10 -7 10 43 0 60 -4 6 -4 13 0 16 5 2 2 2 -6 0 -8 -2 -23 5 -34 14 -19
17 -20 17 -9 -2z"/>
<path d="M366 1593 c-6 -14 -5 -15 5 -6 7 7 10 15 7 18 -3 3 -9 -2 -12 -12z"/>
<path d="M384 1495 c3 -22 13 -27 19 -11 3 8 0 17 -8 19 -7 3 -12 0 -11 -8z"/>
<path d="M315 1431 c-3 -5 -2 -12 3 -15 5 -3 9 1 9 9 0 17 -3 19 -12 6z"/>
<path d="M469 1363 c-1 -5 -2 -15 -3 -23 0 -8 -8 -14 -17 -12 -9 1 -16 -5 -16
-13 0 -8 3 -13 5 -10 3 3 12 -1 20 -8 13 -10 14 -9 10 3 -3 8 1 23 10 33 12
14 13 17 1 17 -11 0 -11 2 1 10 10 6 11 10 3 10 -7 0 -14 -3 -14 -7z"/>
<path d="M349 1343 c-13 -16 -12 -17 4 -4 9 7 17 15 17 17 0 8 -8 3 -21 -13z"/>
<path d="M507 1239 c7 -7 15 -10 18 -7 3 3 -2 9 -12 12 -14 6 -15 5 -6 -5z"/>
<path d="M427 1207 c-3 -8 1 -14 8 -14 7 0 11 6 8 14 -3 7 -6 13 -8 13 -2 0
-5 -6 -8 -13z"/>
<path d="M535 1200 c3 -5 8 -10 11 -10 2 0 4 5 4 10 0 6 -5 10 -11 10 -5 0 -7
-4 -4 -10z"/>
<path d="M565 1161 c-3 -5 -2 -12 3 -15 5 -3 9 1 9 9 0 17 -3 19 -12 6z"/>
<path d="M430 1140 c0 -5 5 -10 11 -10 5 0 7 5 4 10 -3 6 -8 10 -11 10 -2 0
-4 -4 -4 -10z"/>
<path d="M565 1100 c4 -8 15 -23 24 -33 18 -21 23 -45 11 -52 -5 -3 -7 4 -5
15 5 25 0 25 -25 0 -11 -11 -15 -20 -8 -20 6 0 8 -3 5 -7 -9 -9 23 -44 34 -37
5 3 9 0 9 -5 0 -6 -8 -11 -17 -11 -15 0 -16 -2 -3 -10 9 -6 17 -5 22 3 4 7 8
10 9 7 7 -39 10 -60 11 -89 1 -32 1 -33 14 -10 9 18 10 27 1 38 -9 10 -3 10
21 -3 17 -9 32 -12 32 -6 0 5 -6 10 -13 10 -8 0 -19 11 -25 25 -6 14 -17 25
-24 25 -6 0 -3 7 8 16 10 8 14 13 7 10 -6 -4 -14 -2 -18 4 -4 6 -10 8 -15 5
-15 -9 -21 29 -6 40 13 10 13 15 -3 41 -19 31 -63 73 -46 44z m22 -76 c-3 -3
-1 -18 4 -32 8 -21 7 -23 -5 -13 -8 7 -13 20 -11 29 5 23 4 22 12 22 3 0 4 -3
0 -6z m66 -108 c4 -10 1 -13 -9 -9 -15 6 -19 23 -5 23 5 0 11 -7 14 -14z"/>
<path d="M526 1003 c-6 -14 -5 -15 5 -6 7 7 10 15 7 18 -3 3 -9 -2 -12 -12z"/>
<path d="M4790 999 c5 -9 6 -19 3 -23 -3 -3 -4 -6 -1 -6 3 0 12 10 21 23 14
22 14 23 -8 23 -19 0 -22 -3 -15 -17z"/>
<path d="M610 1000 c0 -5 5 -10 11 -10 5 0 7 5 4 10 -3 6 -8 10 -11 10 -2 0
-4 -4 -4 -10z"/>
<path d="M551 973 c7 -12 15 -20 18 -17 3 2 -3 12 -13 22 -17 16 -18 16 -5 -5z"/>
<path d="M515 960 c3 -5 8 -10 11 -10 2 0 4 5 4 10 0 6 -5 10 -11 10 -5 0 -7
-4 -4 -10z"/>
<path d="M4810 960 c0 -5 5 -10 10 -10 6 0 10 5 10 10 0 6 -4 10 -10 10 -5 0
-10 -4 -10 -10z"/>
<path d="M575 920 c3 -5 8 -10 11 -10 2 0 4 5 4 10 0 6 -5 10 -11 10 -5 0 -7
-4 -4 -10z"/>
<path d="M672 921 c2 -7 7 -12 11 -12 12 1 9 15 -3 20 -7 2 -11 -2 -8 -8z"/>
<path d="M4726 835 c-3 -8 -1 -27 4 -41 9 -22 13 -24 25 -14 8 7 15 15 15 17
0 3 -7 0 -15 -7 -12 -10 -15 -9 -17 6 0 11 -1 27 0 37 2 21 -4 22 -12 2z"/>
<path d="M4750 820 c0 -5 5 -10 11 -10 5 0 7 5 4 10 -3 6 -8 10 -11 10 -2 0
-4 -4 -4 -10z"/>
<path d="M785 800 c-3 -6 1 -7 9 -4 18 7 21 14 7 14 -6 0 -13 -4 -16 -10z"/>
<path d="M758 743 c7 -3 16 -2 19 1 4 3 -2 6 -13 5 -11 0 -14 -3 -6 -6z"/>
<path d="M4700 725 c0 -7 30 -13 34 -7 3 4 -4 9 -15 9 -10 1 -19 0 -19 -2z"/>
<path d="M4695 700 c3 -5 8 -10 11 -10 2 0 4 5 4 10 0 6 -5 10 -11 10 -5 0 -7
-4 -4 -10z"/>
<path d="M4656 661 c-3 -4 0 -13 6 -21 8 -12 9 -11 4 4 -5 13 -2 17 9 13 8 -4
16 -3 19 1 3 4 -4 8 -14 9 -11 1 -22 -2 -24 -6z"/>
<path d="M873 647 c0 -8 6 -14 13 -14 7 0 10 6 7 14 -3 7 -8 13 -12 13 -4 0
-8 -6 -8 -13z"/>
<path d="M906 646 c4 -11 13 -15 22 -11 9 3 13 3 9 -1 -9 -9 12 -36 23 -29 5
3 14 -8 21 -24 9 -20 20 -28 36 -28 28 0 39 13 17 21 -8 3 -13 10 -9 15 3 5
-8 18 -25 27 -18 11 -25 21 -18 25 6 4 -5 6 -23 5 -19 -2 -40 2 -47 7 -9 7
-11 6 -6 -7z m77 -36 c8 -11 16 -18 18 -15 3 2 10 -4 16 -14 9 -14 8 -18 -3
-18 -8 0 -12 2 -10 5 5 4 -36 47 -46 47 -3 0 -10 3 -14 8 -4 4 0 7 9 7 9 0 22
-9 30 -20z"/>
<path d="M4630 629 c0 -5 -6 -7 -12 -3 -7 4 -9 3 -5 -1 13 -15 34 -14 34 1 0
8 -4 14 -9 14 -4 0 -8 -5 -8 -11z"/>
<path d="M957 573 c-11 -11 -8 -20 7 -20 8 0 12 6 9 14 -6 15 -7 15 -16 6z"/>
<path d="M4455 551 c-3 -5 -2 -12 3 -15 5 -3 9 1 9 9 0 17 -3 19 -12 6z"/>
<path d="M905 540 c-3 -6 1 -7 9 -4 18 7 21 14 7 14 -6 0 -13 -4 -16 -10z"/>
<path d="M998 516 c4 -15 7 -17 10 -6 3 8 10 18 16 22 6 4 1 6 -10 6 -16 -2
-20 -7 -16 -22z"/>
<path d="M4585 520 c-3 -6 1 -7 9 -4 18 7 21 14 7 14 -6 0 -13 -4 -16 -10z"/>
<path d="M1050 480 c0 -5 5 -10 11 -10 5 0 7 5 4 10 -3 6 -8 10 -11 10 -2 0
-4 -4 -4 -10z"/>
<path d="M1085 482 c-2 -2 -1 -10 2 -18 3 -9 0 -13 -8 -11 -8 2 -11 2 -6 0 4
-3 5 -8 3 -12 -3 -4 0 -8 7 -9 7 0 23 -3 37 -7 44 -11 53 -10 55 8 4 24 -33
57 -62 55 -13 -2 -26 -4 -28 -6z m47 -20 c-1 -7 5 -12 14 -10 10 2 18 -4 19
-14 2 -10 -1 -18 -6 -18 -5 0 -9 4 -9 9 0 6 -8 8 -18 6 -23 -4 -37 5 -38 26
-1 11 6 16 20 15 11 -1 20 -7 18 -14z"/>
<path d="M4296 459 c-15 -16 -23 -29 -17 -29 5 0 13 5 16 10 4 6 10 8 15 5 5
-3 14 3 20 14 17 32 -4 32 -34 0z"/>
<path d="M4455 461 c-3 -5 0 -13 6 -17 8 -5 9 -3 4 6 -6 10 -4 12 9 7 10 -4
15 -3 11 3 -8 13 -22 13 -30 1z"/>
<path d="M1010 439 c0 -5 5 -7 10 -4 6 3 10 8 10 11 0 2 -4 4 -10 4 -5 0 -10
-5 -10 -11z"/>
<path d="M4404 419 c-4 -7 -3 -9 4 -5 5 3 13 0 15 -6 4 -9 6 -10 6 -1 1 17
-16 25 -25 12z"/>
<path d="M1050 416 c0 -2 8 -10 18 -17 15 -13 16 -12 3 4 -13 16 -21 21 -21
13z"/>
<path d="M4254 398 c-12 -14 -13 -18 -3 -10 9 6 18 9 21 6 3 -2 8 2 11 11 9
22 -7 18 -29 -7z"/>
<path d="M4363 412 c-10 -6 -10 -12 2 -28 14 -17 15 -18 9 0 -4 11 -1 22 7 27
8 5 10 9 4 9 -5 0 -16 -4 -22 -8z"/>
<path d="M4456 407 c3 -10 9 -15 12 -12 3 3 0 11 -7 18 -10 9 -11 8 -5 -6z"/>
<path d="M1120 406 c0 -2 7 -7 16 -10 8 -3 12 -2 9 4 -6 10 -25 14 -25 6z"/>
<path d="M4493 395 c0 -8 4 -12 9 -9 5 3 6 10 3 15 -9 13 -12 11 -12 -6z"/>
<path d="M1095 380 c3 -5 8 -10 11 -10 2 0 4 5 4 10 0 6 -5 10 -11 10 -5 0 -7
-4 -4 -10z"/>
<path d="M1310 361 c0 -5 7 -12 16 -15 14 -5 15 -4 4 9 -14 17 -20 19 -20 6z"/>
<path d="M4286 325 c-9 -26 -7 -32 5 -12 6 10 9 21 6 23 -2 3 -7 -2 -11 -11z"/>
<path d="M1276 278 c3 -5 10 -6 15 -3 13 9 11 12 -6 12 -8 0 -12 -4 -9 -9z"/>
<path d="M1420 280 c0 -5 9 -8 20 -7 21 1 18 10 -5 13 -8 1 -15 -2 -15 -6z"/>
<path d="M4235 279 c-3 -4 2 -6 10 -5 21 3 28 13 10 13 -9 0 -18 -4 -20 -8z"/>
<path d="M1350 260 c0 -5 5 -10 10 -10 6 0 10 5 10 10 0 6 -4 10 -10 10 -5 0
-10 -4 -10 -10z"/>
<path d="M1486 233 c1 -14 8 -31 14 -37 10 -8 10 -6 2 10 -8 14 -8 24 -1 31 7
7 6 12 -4 16 -10 4 -13 -2 -11 -20z"/>
<path d="M4107 243 c5 -13 35 -11 40 4 2 6 -7 10 -20 9 -14 0 -23 -6 -20 -13z"/>
<path d="M4173 241 c0 -11 5 -18 9 -15 4 3 5 11 1 19 -7 21 -12 19 -10 -4z"/>
<path d="M1435 220 c-3 -5 -1 -10 4 -10 6 0 11 5 11 10 0 6 -2 10 -4 10 -3 0
-8 -4 -11 -10z"/>
<path d="M4031 217 c2 -1 13 -9 24 -17 19 -14 19 -14 6 3 -7 9 -18 17 -24 17
-6 0 -8 -1 -6 -3z"/>
<path d="M1475 171 c-3 -5 -2 -12 3 -15 5 -3 9 1 9 9 0 17 -3 19 -12 6z"/>
<path d="M1566 163 c-6 -14 -5 -15 5 -6 7 7 10 15 7 18 -3 3 -9 -2 -12 -12z"/>
<path d="M1997 133 c-4 -3 -7 -11 -7 -17 0 -6 5 -5 12 2 6 6 9 14 7 17 -3 3
-9 2 -12 -2z"/>
<path d="M2105 129 c-4 -6 -5 -12 -2 -15 2 -3 7 2 10 11 7 17 1 20 -8 4z"/>
<path d="M2690 136 c0 -2 7 -9 15 -16 13 -11 14 -10 9 4 -5 14 -24 23 -24 12z"/>
<path d="M2476 122 c-3 -5 1 -9 9 -9 8 0 12 4 9 9 -3 4 -7 8 -9 8 -2 0 -6 -4
-9 -8z"/>
</g>
</svg>
